<?xml version="1.0" encoding="UTF-8"?>
<svg width="360px" height="175px" viewBox="0 0 360 175" version="1.1" xmlns="http://www.w3.org/2000/svg" xmlns:xlink="http://www.w3.org/1999/xlink">
    <!-- Generator: Sketch 53.2 (72643) - https://sketchapp.com -->
    <title>Fill 40</title>
    <desc>Created with Sketch.</desc>
    <g id="Homepage" stroke="none" stroke-width="1" fill="none" fill-rule="evenodd">
        <g id="Copper-Pearl-Homepage" transform="translate(-320.000000, -7202.000000)" fill="#F8F8F8">
            <path d="M401.507,7367.11458 C401.507,7366.56858 401.954,7365.84258 402.5,7365.50358 C403.049,7365.16758 403.493,7365.33858 403.493,7365.88758 C403.493,7366.43358 403.049,7367.15658 402.5,7367.49558 C401.954,7367.83158 401.507,7367.66358 401.507,7367.11458 Z M583.359957,7259.62484 C583.029957,7259.29784 583.617957,7259.05784 584.667957,7259.10584 C585.825957,7259.15084 586.059957,7259.38784 585.264957,7259.70584 C584.547957,7259.99384 583.692957,7259.95784 583.359957,7259.62484 Z M538.577592,7255.10793 C551.516075,7255.41965 563.17928,7256.3725 569.958392,7257.67907 C571.927243,7258.05932 574.829061,7258.36883 576.404142,7258.36883 C579.234365,7258.36883 581.44261,7259.75941 578.84507,7259.90975 C574.406205,7260.16399 570.555759,7259.87216 568.66969,7259.14703 C567.481667,7258.6894 562.810121,7258.17207 558.288475,7257.99963 C553.769067,7257.82719 549.900723,7257.63928 549.699363,7257.57958 C549.495766,7257.51547 547.280808,7257.53095 544.777235,7257.61275 C542.273662,7257.69454 540.025145,7257.43809 539.779039,7257.04236 C539.532932,7256.65327 537.273228,7256.4543 534.756231,7256.60684 C532.241471,7256.7616 529.82068,7256.59579 529.375451,7256.23985 C528.930222,7255.88613 527.898813,7255.41744 527.084424,7255.19636 C526.270036,7254.97308 531.440507,7254.93549 538.577592,7255.10793 Z M579.200874,7371.18464 C623.335169,7371.15326 661.441921,7370.8417 663.881056,7370.49651 C668.502694,7369.842 671.644783,7368.33573 671.644783,7366.77118 C671.644783,7366.26909 672.265167,7365.29405 673.021678,7364.60816 C674.635123,7363.13775 674.46329,7358.85878 672.680244,7356.12418 C671.651477,7354.54395 671.698341,7354.30859 673.271617,7352.98612 C674.208888,7352.19937 675.52553,7351.36778 676.199472,7351.13242 C677.654474,7350.63482 680.571171,7344.78233 679.901692,7343.71315 C679.642827,7343.3052 679.339329,7341.9648 679.225518,7340.7432 C678.593976,7333.99636 677.877633,7330.34949 676.779688,7328.30975 C676.395853,7327.60144 676.083429,7326.17811 676.083429,7325.15151 C676.083429,7324.12492 675.750921,7323.28661 675.342539,7323.28661 C674.93862,7323.28661 674.594954,7322.53123 674.581564,7321.61447 C674.54809,7319.23851 673.153342,7317.75017 670.169697,7316.90513 C667.750646,7316.22148 667.543107,7315.91664 666.953966,7312.18683 C666.425077,7308.86273 666.516573,7308.08942 667.50517,7307.53354 C668.156796,7307.16818 668.690148,7306.54505 668.690148,7306.15055 C668.690148,7305.75157 669.569397,7304.03011 670.642796,7302.31763 C672.91233,7298.70886 673.206901,7295.70304 672.160282,7287.03527 C671.327896,7280.15843 670.078202,7278.44146 665.257952,7277.53366 C662.535403,7277.02037 660.555977,7274.32836 660.553745,7271.13874 C660.551514,7269.52264 660.785831,7269.44419 664.84957,7269.67506 L669.149857,7269.91938 L670.582542,7266.73201 C672.695865,7262.02491 672.113418,7250.10476 669.573861,7246.032 C668.933392,7245.00989 668.471452,7244.09313 668.542863,7243.9945 C668.614274,7243.89364 667.668077,7242.05563 666.44293,7239.9083 C665.217783,7237.75873 663.686908,7234.77757 663.035281,7233.27578 C661.890472,7230.63084 661.72087,7230.54343 657.320161,7230.21617 C649.377907,7229.62666 637.380841,7228.26833 633.560347,7227.52416 C624.638422,7225.78478 580.758529,7219.35623 567.371178,7217.82531 C564.318353,7217.47788 560.991042,7217.00269 559.973433,7216.7763 C557.703899,7216.25852 541.752443,7214.97416 530.759596,7214.42051 C526.287476,7214.19412 520.132731,7213.73686 517.082138,7213.40512 C514.029313,7213.07339 510.369494,7212.80217 508.945735,7212.80217 C456.480887,7212.77079 435.816298,7212.7551 434.620162,7212.74165 C433.805629,7212.7282 426.485991,7213.0308 418.349588,7213.41185 C376.127771,7215.37986 378.111661,7215.50763 379.687169,7210.95968 C380.501702,7208.61958 380.062077,7203.19297 378.975289,7202.09689 C378.187536,7201.30789 373.648467,7205.51738 372.389846,7208.19594 C370.240818,7212.76855 369.234368,7215.59728 367.957895,7220.67422 L366.580999,7226.14341 L362.274017,7228.32437 C358.984643,7229.99202 357.712632,7231.12173 356.886941,7233.10543 C355.269034,7236.99887 354.191172,7246.92859 355.119517,7249.38076 C355.579226,7250.5934 355.621626,7251.75224 355.226633,7252.24985 C352.472842,7255.73534 355.563604,7264.82451 359.895134,7265.98784 C361.513042,7266.42268 362.093257,7266.98753 361.972751,7268.01189 C361.876792,7268.79192 361.660328,7271.38306 361.495189,7273.77247 C361.325588,7276.15964 360.899353,7278.4056 360.546761,7278.75975 C360.194168,7279.1139 356.248705,7280.09118 351.778816,7280.92501 C347.308927,7281.76332 343.075587,7282.77871 342.370402,7283.18217 C341.662986,7283.58564 340.469082,7283.91514 339.710339,7283.91514 C337.077054,7283.91514 335.021753,7287.76599 333.77429,7295.01939 C333.091422,7298.99352 333.573447,7301.88054 335.07308,7302.80851 C335.485925,7303.06628 335.648832,7303.74096 335.430136,7304.3103 C335.211439,7304.87739 335.392198,7306.01158 335.834055,7306.8342 C336.394185,7307.88769 336.40088,7308.93894 335.856371,7310.37797 C335.213671,7312.06579 335.345335,7312.78755 336.595029,7314.4821 C338.170537,7316.61823 338.657025,7320.31217 337.369393,7320.31217 C336.963243,7320.31217 336.628503,7320.8165 336.628503,7321.42618 C336.628503,7322.54468 332.433101,7323.05125 326.519368,7322.65003 C323.749956,7322.46399 323.41968,7322.88538 321.411243,7329.21306 L321.411243,7329.21754 C319.701839,7334.59036 319.552322,7337.62979 320.924755,7339.01054 C321.426864,7339.51263 321.837478,7340.32404 321.837478,7340.81268 C321.837478,7341.29684 322.310576,7341.87962 322.890792,7342.10153 C323.535723,7342.35482 323.785662,7343.10123 323.535723,7344.06506 C323.303637,7344.96165 323.638377,7346.18101 324.334635,7346.95656 C324.997419,7347.69176 325.327696,7348.50318 325.06883,7348.76319 C324.615816,7349.21821 324.107012,7351.71969 323.821368,7354.85551 C323.691935,7356.2654 324.093622,7356.33264 331.821643,7356.20712 C336.295995,7356.13315 345.280405,7355.57054 351.789974,7354.96086 C375.121321,7352.7687 374.920477,7352.77094 375.451597,7354.66947 C376.973547,7360.13194 379.553273,7364.88386 380.992653,7364.88386 C381.764786,7364.88386 382.601635,7365.21784 382.851573,7365.62579 C383.541137,7366.75101 386.879606,7366.51565 388.131532,7365.25595 C390.064095,7363.32155 393.949306,7366.26013 396.21884,7371.38189 C396.810213,7372.71108 397.747484,7373.79596 398.30092,7373.79596 C398.854356,7373.79596 399.780469,7374.50875 400.353989,7375.37395 C401.320271,7376.83988 402.061161,7376.95419 410.983086,7376.99902 C416.254118,7377.02592 426.559634,7376.49469 433.881504,7375.82449 C478.88389,7371.68001 492.159661,7371.25861 579.200874,7371.18464 L579.200874,7371.18464 Z" id="Fill-40"></path>
        </g>
    </g>
</svg>