<?xml version="1.0" encoding="UTF-8"?>
<svg width="185px" height="50px" viewBox="0 0 185 50" version="1.1" xmlns="http://www.w3.org/2000/svg" xmlns:xlink="http://www.w3.org/1999/xlink">
    <!-- Generator: Sketch 53.2 (72643) - https://sketchapp.com -->
    <title>cp_logo</title>
    <desc>Created with Sketch.</desc>
    <g id="Homepage" stroke="none" stroke-width="1" fill="none" fill-rule="evenodd">
        <g id="Copper-Pearl-Homepage-Copy" transform="translate(-874.000000, -70.000000)" fill="#000000">
            <g id="Group-9" transform="translate(0.000000, 49.000000)">
                <g id="cp_logo" transform="translate(874.000000, 21.000000)">
                    <g id="LogoWhite">
                        <path d="M29.18,2.8 L29.1,2.52 L28.87,2.83 L28.68,2.83 L28.73,3 L18.15,17 L5.8,15.42 L5.71,15.21 L5.54,15.38 L5.22,15.38 L5.33,15.63 L0,21 L7.79,21 L10.48,26.92 L10.12,27 L10.48,27.19 L10.23,27.52 L10.7,27.41 L10.79,27.61 L10.93,27.42 L31.34,37.9 L31.34,41.32 L43.69,50 L35.14,24.6 L54.82,0 L29.18,2.8 Z M1.2,20.5 L5.56,16.08 L7.56,20.5 L1.2,20.5 Z M10.9,26.64 L8.34,21 L8.34,21 L6.57,17.09 L6.05,16 L17.8,17.49 L17.14,18.36 L10.9,26.64 Z M18.72,17.1 L18.72,17.1 L28.89,3.62 L28.89,3.62 L33.77,21.5 L11.49,26.68 L18.72,17.1 Z M11.57,27.21 L33.91,22.05 L34.6,24.56 L33.93,27.27 L31.42,37.38 L11.57,27.21 Z M42.73,48.69 L31.84,41.06 L31.84,37.8 L34.9,25.44 L42.73,48.69 Z M35,24 L34.43,21.93 L34.49,21.93 L30,5.68 L29.34,3.28 L53.68,0.63 L35,24 Z" id="Shape" fill-rule="nonzero"></path>
                        <path d="M105.71,22.07 C105.606725,21.8985851 105.470826,21.7490955 105.31,21.63 C105.093544,21.4700853 104.849466,21.3514366 104.59,21.28 C104.218713,21.1787354 103.834756,21.1315828 103.45,21.14 C102.907205,21.1897085 102.4119,21.4701388 102.09,21.91 C101.657027,22.425242 101.2908,22.9930606 101,23.6 C100.710146,24.2029755 100.469366,24.8283338 100.28,25.47 L99.9,26.76 C99.6020146,27.738399 99.3977615,28.7429221 99.29,29.76 C99.14,27.25 99.11,24.76 99.18,22.22 C99.1359046,22.0439522 98.9813167,21.9178411 98.8,21.91 L98.8,21.91 C98.7124391,21.9045319 98.6263048,21.9341552 98.5606301,21.9923243 C98.4949553,22.0504933 98.4551465,22.1324196 98.45,22.22 L98.45,22.22 C97.39,22.43 96.34,22.63 95.31,22.8 C94.28,22.97 93.13,23.13 91.99,23.24 C91.8318209,23.2396481 91.7005449,23.3621723 91.69,23.52 C91.6999217,23.6766541 91.785812,23.8185597 91.92,23.9 C92.1820046,23.9767341 92.4494324,24.0335626 92.72,24.07 C93.0263475,24.1179241 93.3300702,24.1813387 93.63,24.26 C93.9132994,24.3405987 94.1906379,24.4408415 94.46,24.56 C94.6961209,24.6604251 94.8952734,24.8316264 95.03,25.05 C95.3711733,25.6580516 95.5177577,26.3560729 95.45,27.05 C95.3989028,27.8779587 95.1919449,28.6888267 94.84,29.44 C94.5013464,30.1858242 94.0029241,30.8481113 93.38,31.38 C92.8152981,31.889277 92.0688538,32.1489098 91.31,32.1 C90.987275,32.088592 90.6733155,31.991989 90.4,31.82 C90.1526653,31.659149 89.9387438,31.4520187 89.77,31.21 C89.6076922,30.9653459 89.479826,30.6995188 89.39,30.42 C89.3,30.14 89.21,29.86 89.14,29.58 C89.0397618,28.9988299 88.9928998,28.4097084 89,27.82 C88.9933076,27.1087984 89.0569506,26.3986775 89.19,25.7 C89.3077909,25.0101849 89.5127661,24.338135 89.8,23.7 C90.0541854,23.1205325 90.4710355,22.6272598 91,22.28 C91.1468467,22.159868 91.3227488,22.0805396 91.51,22.05 L92.1,21.93 L92.1,21.93 C92.186538,21.8946113 92.25532,21.8260704 92.2910124,21.7396573 C92.3267048,21.6532441 92.3263402,21.5561427 92.29,21.47 L92.29,21.47 C92.1920251,21.2813668 91.9636267,21.2023058 91.77,21.29 L90.6,21.67 C89.9966072,21.9073261 89.5235005,22.3913506 89.3,23 C89.1851375,23.281264 89.0850019,23.5683195 89,23.86 C88.25,24.35 87.39,24.86 86.38,25.42 C85.37,25.98 84.23,26.54 83.1,27.06 C81.97,27.58 80.84,28.06 79.71,28.49 C78.7297395,28.8798633 77.7281264,29.2137343 76.71,29.49 C75.9696491,29.7000717 75.2185721,29.8703159 74.46,30 C73.6667044,30.1583347 72.8588522,30.2320806 72.05,30.22 C71.2585095,30.1990123 70.4767653,30.0399562 69.74,29.75 C68.9497897,29.4502075 68.2576945,28.9380571 67.74,28.27 C67.3124366,27.732776 67.0269985,27.0965585 66.91,26.42 C66.7801662,25.7110055 66.7498743,24.9873649 66.82,24.27 C66.8779911,23.5522651 66.9916666,22.8401216 67.16,22.14 C67.2991211,21.5273713 67.4829467,20.9257605 67.71,20.34 C68.3401773,18.6957934 69.2022358,17.1501494 70.27,15.75 C71.3466504,14.2913118 72.5994829,12.9713033 74,11.82 C76.9923458,9.37262107 80.5510406,7.7153352 84.35,7 C84.5300955,6.93464831 84.6360529,6.74816332 84.6,6.56 C84.5422216,6.3729179 84.3517476,6.26036507 84.16,6.3 C82.1962646,6.70707568 80.2819465,7.32394876 78.45,8.14 C76.9170024,8.83053103 75.4508177,9.66069952 74.07,10.62 C72.9847736,11.3718587 71.9795148,12.2330304 71.07,13.19 C70.4529194,13.8149488 69.9063118,14.5057535 69.44,15.25 C69.01,16.06 68.56,16.86 68.08,17.64 C67.6013244,18.4207421 67.1962489,19.2442838 66.87,20.1 C66.3576894,21.4653867 66.0640775,22.9030727 66,24.36 C65.9267954,25.823465 66.2737795,27.2773286 67,28.55 C67.4536516,29.2018452 68.0710403,29.7226591 68.79,30.06 C69.5211437,30.4206164 70.3096616,30.6507418 71.12,30.74 C72.0065995,30.8500267 72.9034005,30.8500267 73.79,30.74 C74.7294433,30.6218537 75.6610717,30.4482168 76.58,30.22 C77.4977631,29.9968485 78.4024787,29.7230969 79.29,29.4 C80.17,29.08 80.99,28.77 81.75,28.47 C83.1267465,27.9324249 84.463461,27.2974855 85.75,26.57 C86.75,26 87.75,25.39 88.75,24.75 C88.75,24.98 88.64,25.21 88.6,25.45 C88.4486529,26.2916038 88.3716892,27.1448976 88.37,28 C88.346298,28.6078351 88.3730564,29.2165889 88.45,29.82 C88.5309257,30.1610293 88.6379065,30.4953444 88.77,30.82 C88.9074293,31.1765966 89.0924382,31.5129764 89.32,31.82 C89.5484055,32.140454 89.8413524,32.4095563 90.18,32.61 C90.528877,32.8016729 90.9220228,32.8982351 91.32,32.89 C92.1035043,32.8692458 92.8600486,32.5995517 93.48,32.12 C94.1910067,31.6074916 94.8069447,30.9746323 95.3,30.25 C95.7908714,29.5472158 96.1500321,28.7611281 96.36,27.93 C96.5689664,27.2441395 96.5407843,26.5078797 96.28,25.84 C96.179933,25.6515144 96.0898095,25.4579158 96.01,25.26 C95.930103,25.0569137 95.8295765,24.8625624 95.71,24.68 C95.583504,24.4238475 95.3761525,24.216496 95.12,24.09 C94.8206811,23.9386225 94.5096799,23.8115467 94.19,23.71 C94.97,23.6 95.74,23.47 96.5,23.33 L98.5,22.97 C98.5,24.08 98.5,25.19 98.5,26.34 C98.5,27.75 98.6,29.15 98.67,30.56 C98.74,31.97 98.9,33.38 98.96,34.79 C99.02,36.2 99,37.61 99,39 L99,40.7 C99.0200043,40.9262253 99.0200043,41.1537747 99,41.38 C98.9597466,41.6044218 98.9396664,41.831997 98.94,42.06 C98.9732274,42.2016097 99.0742924,42.3176472 99.21,42.37 L99.47,42.37 C99.512017,42.3563884 99.549874,42.3322976 99.58,42.3 C99.6001076,42.2554993 99.6001076,42.2045007 99.58,42.16 L99.58,41.64 C99.64,40.43 99.67,39.2 99.67,37.97 C99.67,36.74 99.67,35.53 99.73,34.28 C99.79,33.03 99.87,31.8 100,30.58 C100.127749,29.3519019 100.331473,28.1328996 100.61,26.93 C100.71,26.51 100.83,26.04 100.97,25.53 C101.108514,25.0211501 101.292591,24.5258145 101.52,24.05 C101.742591,23.5751282 102.021241,23.1286168 102.35,22.72 C102.68101,22.3089624 103.111175,21.9889197 103.6,21.79 C103.759516,21.7400586 103.930484,21.7400586 104.09,21.79 C104.252716,21.810084 104.417284,21.810084 104.58,21.79 C104.939095,22.0682134 105.187277,22.4653038 105.28,22.91 C105.421485,23.4751601 105.478769,24.0581099 105.45,24.64 C105.419778,25.3133805 105.329419,25.9827111 105.18,26.64 C105.038107,27.2890608 104.840715,27.9247314 104.59,28.54 C104.391854,29.0601071 104.118989,29.5485707 103.78,29.99 C103.56883,30.313039 103.244065,30.5450143 102.87,30.64 L101.87,30.19 C101.676038,30.0997016 101.44525,30.1737278 101.34,30.36 C101.24,30.55 101.34,30.71 101.57,30.85 C101.859217,31.0698608 102.20733,31.1986625 102.57,31.22 C102.850426,31.2367594 103.131579,31.2028856 103.4,31.12 C103.628899,31.0506338 103.842643,30.9386728 104.03,30.79 C104.154882,30.7000906 104.26897,30.5960691 104.37,30.48 C104.727679,29.9899419 105.02013,29.4554629 105.24,28.89 C105.552304,28.156328 105.799912,27.3967734 105.98,26.62 C106.162079,25.8454113 106.269239,25.0551064 106.3,24.26 C106.355646,23.6291305 106.223432,22.9958972 105.92,22.44 L105.71,22.07 Z" id="Path"></path>
                        <path d="M114.17,22.1 C114.066725,21.9285851 113.930826,21.7790955 113.77,21.66 C113.553544,21.5000853 113.309466,21.3814366 113.05,21.31 C112.678713,21.2087354 112.294756,21.1615828 111.91,21.17 C111.367205,21.2197085 110.8719,21.5001388 110.55,21.94 C110.148957,22.449612 109.813031,23.0072482 109.55,23.6 C109.260146,24.2029755 109.019366,24.8283338 108.83,25.47 L108.45,26.76 C108.152015,27.738399 107.947762,28.7429221 107.84,29.76 C107.69,27.25 107.66,24.76 107.73,22.22 C107.685905,22.0439522 107.531317,21.9178411 107.35,21.91 L107.35,21.91 C107.262439,21.9045319 107.176305,21.9341552 107.11063,21.9923243 C107.044955,22.0504933 107.005146,22.1324196 107,22.22 C107,23.57 107.1,24.94 107.14,26.35 C107.18,27.76 107.24,29.16 107.31,30.57 C107.38,31.98 107.46,33.38 107.52,34.79 C107.58,36.2 107.61,37.61 107.61,39.03 L107.61,40.73 C107.630004,40.9562253 107.630004,41.1837747 107.61,41.41 C107.569747,41.6344218 107.549666,41.861997 107.55,42.09 C107.583227,42.2316097 107.684292,42.3476472 107.82,42.4 L108.07,42.4 C108.112017,42.3863884 108.149874,42.3622976 108.18,42.33 C108.200108,42.2854993 108.200108,42.2345007 108.18,42.19 L108.18,41.67 C108.24,40.46 108.27,39.23 108.27,38 C108.27,36.77 108.2,35.56 108.27,34.31 C108.34,33.06 108.41,31.83 108.54,30.61 C108.667749,29.3819019 108.871473,28.1628996 109.15,26.96 C109.25,26.54 109.37,26.07 109.51,25.56 C109.648514,25.0511501 109.832591,24.5558145 110.06,24.08 C110.282591,23.6051282 110.561241,23.1586168 110.89,22.75 C111.22101,22.3389624 111.651175,22.0189197 112.14,21.82 C112.299516,21.7700586 112.470484,21.7700586 112.63,21.82 C112.792716,21.840084 112.957284,21.840084 113.12,21.82 C113.479095,22.0982134 113.727277,22.4953038 113.82,22.94 C113.961485,23.5051601 114.018769,24.0881099 113.99,24.67 C113.959778,25.3433805 113.869419,26.0127111 113.72,26.67 C113.578107,27.3190608 113.380715,27.9547314 113.13,28.57 C112.923922,29.0842866 112.644346,29.5659668 112.3,30 C112.08883,30.323039 111.764065,30.5550143 111.39,30.65 L110.39,30.2 C110.196038,30.1097016 109.96525,30.1837278 109.86,30.37 C109.76,30.56 109.86,30.72 110.09,30.86 C110.379217,31.0798608 110.72733,31.2086625 111.09,31.23 C111.370426,31.2467594 111.651579,31.2128856 111.92,31.13 C112.148899,31.0606338 112.362643,30.9486728 112.55,30.8 C112.665698,30.7175214 112.772893,30.6237252 112.87,30.52 C113.227679,30.0299419 113.52013,29.4954629 113.74,28.93 C114.052304,28.196328 114.299912,27.4367734 114.48,26.66 C114.662079,25.8854113 114.769239,25.0951064 114.8,24.3 C114.855646,23.6691305 114.723432,23.0358972 114.42,22.48 L114.17,22.1 Z" id="Path"></path>
                        <path d="M122.36,29.39 C121.918928,29.8910688 121.451606,30.3684051 120.96,30.82 C120.434224,31.2894276 119.778966,31.5891734 119.08,31.68 C118.55195,31.8008934 118.001121,31.6108184 117.66,31.19 C117.312047,30.7619049 117.038259,30.2785506 116.85,29.76 C117.667853,28.995533 118.374707,28.1203805 118.95,27.16 C119.551389,26.1126816 120.076096,25.0231621 120.52,23.9 C120.628249,23.5767886 120.692164,23.2403898 120.71,22.9 C120.770252,22.4118522 120.770252,21.9181478 120.71,21.43 C120.658234,20.9780227 120.504354,20.5437375 120.26,20.16 C120.012317,19.7974141 119.568251,19.6229594 119.14,19.72 C118.372765,19.8589866 117.692573,20.2980526 117.25,20.94 C116.681428,21.69937 116.257684,22.5570291 116,23.47 C115.70355,24.4833198 115.555346,25.5342168 115.56,26.59 C115.548858,27.6076126 115.700783,28.6204413 116.01,29.59 L116.28,30.22 C116.534363,30.7930096 116.917662,31.2995116 117.4,31.7 C117.891165,32.091357 118.492764,32.3187054 119.12,32.35 C119.743557,32.328826 120.337714,32.0797781 120.79,31.65 C121.496435,31.088528 122.164588,30.4805087 122.79,29.83 C122.881677,29.7921144 122.951448,29.7149988 122.98,29.62 C123.028382,29.4828438 122.984168,29.3301022 122.87,29.24 C122.686975,29.1484494 122.464315,29.2139374 122.36,29.39 L122.36,29.39 Z M116.52,28.22 C116.43824,27.536485 116.401494,26.8483351 116.41,26.16 C116.408009,25.3732305 116.491838,24.5885908 116.66,23.82 C116.818777,23.1103041 117.099618,22.4335797 117.49,21.82 C117.882999,21.1908777 118.484794,20.7200614 119.19,20.49 C119.739933,20.758753 120.09735,21.3083289 120.12,21.92 C120.131672,22.5228417 120.047282,23.1236968 119.87,23.7 C119.567702,24.6260632 119.161797,25.5150285 118.66,26.35 C118.091893,27.3035751 117.421242,28.1921869 116.66,29 L116.52,28.22 Z" id="Shape" fill-rule="nonzero"></path>
                        <path d="M131.61,30.42 L131.14,30.42 L130.29,30.51 C130.000344,30.5299841 129.709656,30.5299841 129.42,30.51 C129.217393,30.5224731 129.01652,30.4660875 128.85,30.35 C128.629191,30.036176 128.559554,29.640341 128.66,29.27 C128.706221,28.6991641 128.803273,28.1335893 128.95,27.58 C129.103333,26.98 129.243333,26.37 129.37,25.75 C129.500484,25.2517343 129.500484,24.7282657 129.37,24.23 C129.260901,23.8986775 129.109662,23.5827549 128.92,23.29 L128.18,22.1 L127.38,20.83 C127.130681,20.4329518 126.910117,20.0185586 126.72,19.59 C126.740002,19.2569667 126.740002,18.9230333 126.72,18.59 C126.698118,18.2983215 126.661404,18.0079459 126.61,17.72 C126.575853,17.6504223 126.519578,17.5941467 126.45,17.56 C126.354629,17.5064578 126.241818,17.4932407 126.136654,17.5232877 C126.031489,17.5533347 125.942689,17.6241549 125.89,17.72 C125.680632,18.0085303 125.591042,18.3668882 125.64,18.72 C125.686492,19.1111684 125.794489,19.4925361 125.96,19.85 C125.951837,20.5693142 125.898398,21.287401 125.8,22 C125.7,22.75 125.57,23.5 125.42,24.23 C125.27,24.96 125.11,25.67 124.95,26.36 C124.79,27.05 124.63,27.66 124.48,28.19 C124.326699,28.7299167 124.143074,29.2607593 123.93,29.78 C123.716926,30.2992407 123.533301,30.8300833 123.38,31.37 C123.362397,31.543465 123.486902,31.6990964 123.66,31.72 C123.844183,31.7493931 124.024996,31.650768 124.1,31.48 C124.251222,30.9779216 124.428122,30.4839381 124.63,30 C124.827685,29.5221275 124.991425,29.0309091 125.12,28.53 C125.266667,28.05 125.416667,27.52 125.57,26.94 C125.72,26.36 125.87,25.74 126.01,25.07 C126.15,24.4 126.28,23.74 126.39,23.07 C126.5,22.4 126.6,21.74 126.67,21.07 C127,21.6 127.33,22.07 127.67,22.59 C127.949011,22.9615465 128.183918,23.3642451 128.37,23.79 C128.620141,24.4259057 128.679224,25.1209983 128.54,25.79 C128.41,26.53 128.26,27.23 128.09,27.9 C127.941604,28.5002946 127.847888,29.112797 127.81,29.73 C127.758178,30.210205 128.014592,30.670949 128.45,30.88 C128.628386,30.9400188 128.812826,30.9802601 129,31 C129.29761,31.0881787 129.60197,31.1517264 129.91,31.19 L130.91,31.19 C131.208114,31.1919301 131.505853,31.1685124 131.8,31.12 C131.980096,31.0546483 132.086053,30.8681633 132.05,30.68 C131.992222,30.4929179 131.801748,30.3803651 131.61,30.42 L131.61,30.42 Z" id="Path"></path>
                        <path d="M156.34,13.26 C156.44285,12.3027823 156.35793,11.3346931 156.09,10.41 C155.837993,9.50782543 155.420949,8.66017537 154.86,7.91 C154.306227,7.16399773 153.600751,6.54372432 152.79,6.09 C151.933952,5.61219055 150.979171,5.33841797 150,5.29 C149.11161,5.23903823 148.22384,5.40013932 147.41,5.76 C146.628775,6.1223008 145.917816,6.6199719 145.31,7.23 C144.672045,7.86728452 144.117609,8.58301071 143.66,9.36 C143.199119,10.1551555 142.78508,10.9765546 142.42,11.82 C142.04796,12.5626066 141.730454,13.3313034 141.47,14.12 C141.2,14.92 140.97,15.59 140.77,16.12 C140.61304,16.571117 140.486097,17.0321236 140.39,17.5 L140,19.19 C140,18.59 140,18 139.91,17.41 C139.82,16.82 139.85,16.26 139.85,15.73 C139.8,14.54 139.78,13.38 139.79,12.24 C139.8,11.1 139.79,9.94 139.73,8.75 C139.719962,8.67474775 139.692575,8.60285734 139.65,8.54 C139.52045,8.4511052 139.34955,8.4511052 139.22,8.54 C139.092785,8.57675548 139.001349,8.6880687 138.99,8.82 L138.99,12.26 C138.99,13.42 138.99,14.6 139.06,15.79 C139.13,16.98 139.16,18.11 139.21,19.25 C139.26,20.39 139.31,21.55 139.36,22.74 C138.776737,26.7641572 138.472677,30.8238565 138.45,34.89 C138.45,36.48 138.45,38.07 138.58,39.66 C138.692677,41.2396664 138.977703,42.8022815 139.43,44.32 C139.468058,44.3498702 139.512578,44.3704182 139.56,44.38 C139.767066,44.4376482 139.981739,44.3168941 140.04,44.11 C140.27634,42.412229 140.42321,40.7032011 140.48,38.99 C140.48,37.18 140.56,35.35 140.56,33.49 C140.56,31.63 140.5,29.76 140.41,27.89 C140.32,26.02 140.23,24.2 140.13,22.43 C140.38,20.87 140.69,19.32 141.06,17.77 C141.409241,16.2773852 141.870549,14.8132334 142.44,13.39 C142.95664,12.0882713 143.603245,10.8419651 144.37,9.67 C145.042774,8.62617392 145.908192,7.72003015 146.92,7 C147.613454,6.48590711 148.418734,6.14323453 149.27,6 C149.976871,5.87276853 150.703971,5.91735484 151.39,6.13 C152.057541,6.36981716 152.664919,6.75198752 153.17,7.25 C153.704619,7.76286623 154.159639,8.3527065 154.52,9 C154.888465,9.66128701 155.17076,10.367023 155.36,11.1 C155.548077,11.7698638 155.632389,12.4645941 155.61,13.16 C155.518875,14.6303074 155.250258,16.0841974 154.81,17.49 C154.358554,18.9985248 153.723816,20.4459947 152.92,21.8 C152.131622,23.1388892 151.147398,24.3523158 150,25.4 C148.90016,26.4294371 147.569694,27.1803957 146.12,27.59 C145.923438,27.6560624 145.804509,27.8556933 145.84,28.06 C145.84,28.26 146.03,28.34 146.31,28.29 C147.970969,27.7689556 149.501693,26.8996139 150.8,25.74 C151.993429,24.6616534 153.006278,23.3989674 153.8,22 C154.563275,20.616119 155.147941,19.1410145 155.54,17.61 C155.925844,16.1844687 156.193418,14.7295336 156.34,13.26 L156.34,13.26 Z M139.57,41.09 C139.54998,40.9842727 139.54998,40.8757273 139.57,40.77 C139.57,40.89 139.57,40.98 139.57,41.08 L139.57,41.09 Z M139.66,41.09 L139.66,41.09 C139.66,40.96 139.66,40.8 139.66,40.62 C139.55,39.29 139.46,37.95 139.41,36.62 C139.36,35.29 139.41,33.95 139.41,32.62 C139.41,31.78 139.47,30.9 139.52,29.97 C139.57,29.04 139.65,28.04 139.75,26.97 C139.876667,29.39 139.953333,31.7566667 139.98,34.07 C139.91,36.36 139.83,38.7 139.66,41.05 L139.66,41.09 Z" id="Shape" fill-rule="nonzero"></path>
                        <path d="M161.7,29.4 C161.258928,29.9010688 160.791606,30.3784051 160.3,30.83 C159.784207,31.3114307 159.136655,31.628244 158.44,31.74 C157.91195,31.8608934 157.361121,31.6708184 157.02,31.25 C156.672047,30.8219049 156.398259,30.3385506 156.21,29.82 C157.027853,29.055533 157.734707,28.1803805 158.31,27.22 C158.90966,26.1855913 159.43434,25.109496 159.88,24 C159.988249,23.6767886 160.052164,23.3403898 160.07,23 C160.130252,22.5118522 160.130252,22.0181478 160.07,21.53 C160.018234,21.0780227 159.864354,20.6437375 159.62,20.26 C159.372317,19.8974141 158.928251,19.7229594 158.5,19.82 C157.739191,19.9490983 157.060028,20.3731259 156.61,21 C156.052907,21.7525309 155.636226,22.5994424 155.38,23.5 C155.08355,24.5133198 154.935346,25.5642168 154.94,26.62 C154.928858,27.6376126 155.080783,28.6504413 155.39,29.62 L155.66,30.25 C155.909922,30.8090034 156.282462,31.3045842 156.75,31.7 C157.241165,32.091357 157.842764,32.3187054 158.47,32.35 C159.093557,32.328826 159.687714,32.0797781 160.14,31.65 C160.846435,31.088528 161.514588,30.4805087 162.14,29.83 C162.231677,29.7921144 162.301448,29.7149988 162.33,29.62 C162.378382,29.4828438 162.334168,29.3301022 162.22,29.24 C162.130083,29.1909519 162.024173,29.1802791 161.926277,29.2104008 C161.828382,29.2405225 161.746791,29.3088877 161.7,29.4 L161.7,29.4 Z M155.86,28.3 C155.77824,27.616485 155.741494,26.9283351 155.75,26.24 C155.748009,25.4532305 155.831838,24.6685908 156,23.9 C156.156402,23.161333 156.444314,22.4567961 156.85,21.82 C157.241137,21.1973307 157.834196,20.7278256 158.53,20.49 C159.079933,20.758753 159.43735,21.3083289 159.46,21.92 C159.471672,22.5228417 159.387282,23.1236968 159.21,23.7 C158.907702,24.6260632 158.501797,25.5150285 158,26.35 C157.431893,27.3035751 156.761242,28.1921869 156,29 L155.86,28.3 Z" id="Shape" fill-rule="nonzero"></path>
                        <path d="M177.14,31.2 C177.438114,31.2019301 177.735853,31.1785124 178.03,31.13 C178.210096,31.0646483 178.316053,30.8781633 178.28,30.69 C178.222222,30.5029179 178.031748,30.3903651 177.84,30.43 L177.37,30.43 L176.52,30.52 C176.230344,30.5399841 175.939656,30.5399841 175.65,30.52 C175.447393,30.5324731 175.24652,30.4760875 175.08,30.36 C174.859191,30.046176 174.789554,29.650341 174.89,29.28 C174.972479,28.7141956 175.085984,28.1533504 175.23,27.6 C175.376667,27 175.516667,26.39 175.65,25.77 C175.780484,25.2717343 175.780484,24.7482657 175.65,24.25 C175.540901,23.9186775 175.389662,23.6027549 175.2,23.31 L174.46,22.12 L173.66,20.85 C173.39234,20.4482338 173.155015,20.0270659 172.95,19.59 C172.970002,19.2569667 172.970002,18.9230333 172.95,18.59 C172.928118,18.2983215 172.891404,18.0079459 172.84,17.72 C172.805853,17.6504223 172.749578,17.5941467 172.68,17.56 C172.584629,17.5064578 172.471818,17.4932407 172.366654,17.5232877 C172.261489,17.5533347 172.172689,17.6241549 172.12,17.72 C171.910632,18.0085303 171.821042,18.3668882 171.87,18.72 C171.916492,19.1111684 172.024489,19.4925361 172.19,19.85 C172.17693,20.5702231 172.113442,21.2886469 172,22 C171.9,22.75 171.77,23.5 171.62,24.23 C171.47,24.96 171.34,25.67 171.18,26.36 C171.02,27.05 170.86,27.66 170.71,28.19 C170.556699,28.7299167 170.373074,29.2607593 170.16,29.78 C169.946926,30.2992407 169.763301,30.8300833 169.61,31.37 C169.60576,31.3998502 169.60576,31.4301498 169.61,31.46 C169.541576,31.4321818 169.47143,31.4088 169.4,31.39 C169.25455,31.3676688 169.117022,31.3092195 169,31.22 C168.708809,30.8854893 168.490807,30.493768 168.36,30.07 C168.198884,29.5592555 168.091634,29.0330592 168.04,28.5 C167.98,27.88 167.95,27.25 167.95,26.63 C167.95,26.01 167.95,25.3 168.03,24.63 C168.17,23.53 168.29,22.7 168.39,22.13 C168.49,21.56 168.56,21.13 168.6,20.86 C168.64006,20.6889813 168.64006,20.5110187 168.6,20.34 C168.536668,20.2583993 168.449169,20.1988997 168.35,20.17 L168.29,20.17 C168.17055,20.1589065 168.051616,20.1959669 167.959611,20.2729502 C167.867607,20.3499336 167.810149,20.4604665 167.8,20.58 C167.652506,21.1557494 167.568671,21.745952 167.55,22.34 C167.187156,22.0507607 166.713237,21.9405469 166.26,22.04 C165.815764,22.1551253 165.406937,22.3784342 165.07,22.69 C164.687371,23.0275166 164.351115,23.4142103 164.07,23.84 C163.807058,24.2360692 163.585876,24.6583252 163.41,25.1 C163.248568,25.5258229 163.121495,25.9638898 163.03,26.41 C162.903709,26.9789765 162.826757,27.5577906 162.8,28.14 C162.770014,28.6745227 162.82058,29.2105156 162.95,29.73 C163.031936,30.1618779 163.354881,30.5081684 163.78,30.62 C164.150391,30.7406114 164.553622,30.7082089 164.9,30.53 C165.266088,30.3364754 165.583939,30.0630557 165.83,29.73 C166.129498,29.3357748 166.390683,28.9138614 166.61,28.47 C166.868818,27.981087 167.089474,27.4729081 167.27,26.95 C167.312964,27.9302433 167.426592,28.9061098 167.61,29.87 C167.680045,30.5748945 168.011895,31.2278902 168.54,31.7 C168.687169,31.8094783 168.853287,31.8908422 169.03,31.94 C169.209883,31.9861016 169.386862,32.0428686 169.56,32.11 C169.742453,32.1299755 169.919319,32.0395774 170.01,31.88 C170.034453,31.8224915 170.034453,31.7575085 170.01,31.7 C170.147497,31.6868356 170.268472,31.6036648 170.33,31.48 C170.498395,31.0131726 170.692014,30.5558327 170.91,30.11 C171.107685,29.6321275 171.271425,29.1409091 171.4,28.64 C171.553333,28.16 171.703333,27.63 171.85,27.05 C172,26.47 172.15,25.85 172.29,25.18 C172.43,24.51 172.56,23.85 172.67,23.18 C172.78,22.51 172.88,21.85 172.95,21.18 C173.28,21.71 173.61,22.18 173.95,22.7 C174.229011,23.0715465 174.463918,23.4742451 174.65,23.9 C174.900141,24.5359057 174.959224,25.2309983 174.82,25.9 C174.69,26.57 174.52,27.28 174.32,28.03 C174.171604,28.6302946 174.077888,29.242797 174.04,29.86 C173.988178,30.340205 174.244592,30.800949 174.68,31.01 C174.858386,31.0700188 175.042826,31.1102601 175.23,31.13 C175.517467,31.1781513 175.808533,31.2015704 176.1,31.2 L177.14,31.2 Z M167.43,24 L167.22,24.77 C167.14,25.02 167.07,25.28 167.01,25.54 C166.95,25.8 166.89,26.01 166.84,26.17 L166.54,27.04 C166.44,27.32 166.33,27.61 166.2,27.91 C165.930445,28.7103412 165.462562,29.4293669 164.84,30 L164.68,30.1 C164.392981,30.2012043 164.077677,30.0546545 163.97,29.77 C163.731495,29.2261013 163.628549,28.6324459 163.67,28.04 C163.672967,27.2479099 163.787423,26.460181 164.01,25.7 C164.209315,24.9498577 164.548602,24.2441407 165.01,23.62 C165.426289,23.0298146 166.088973,22.6616568 166.81,22.62 L167.6,23.35 C167.55,23.52 167.5,23.73 167.43,24 Z" id="Shape" fill-rule="nonzero"></path>
                        <path d="M184.38,14.68 C184.28,14.21 184.2,13.79 184.13,13.42 C184.06,13.05 183.99,12.72 183.92,12.42 C183.85,12.12 183.75,11.81 183.64,11.48 C183.53,11.15 183.37,10.76 183.17,10.29 C182.97,9.82 182.86,9.63 182.68,9.29 C182.5,8.95 182.31,8.62 182.11,8.29 C181.891575,7.93152371 181.636905,7.59643184 181.35,7.29 C181.029293,6.91883307 180.651163,6.60147385 180.23,6.35 C179.910318,6.14072264 179.512476,6.08915058 179.15,6.21 C178.721177,6.51751707 178.479665,7.02318357 178.51,7.55 C178.309908,9.06482867 178.219672,10.5921487 178.24,12.12 C178.24,13.63 178.33,15.12 178.43,16.69 C178.51,17.97 178.59,19.15 178.68,20.22 C178.77,21.29 178.87,22.47 179,23.75 C179.04,24.2633333 179.13,25.0333333 179.27,26.06 C179.41,27.06 179.61,28.19 179.86,29.36 L179.25,30.2 L178.66,30.99 C178.42,31.3 178.17,31.62 177.9,31.93 C177.630347,32.2396568 177.339657,32.5303466 177.03,32.8 C176.757803,33.0383998 176.441979,33.2217815 176.1,33.34 C175.96444,33.2592788 175.79556,33.2592788 175.66,33.34 L175.66,33.34 C175.606249,33.3926649 175.575959,33.4647487 175.575959,33.54 C175.575959,33.6152513 175.606249,33.6873351 175.66,33.74 L175.66,33.83 C175.764617,33.94883 175.925008,34.0022938 176.08,33.97 C176.498509,33.8482778 176.891517,33.6517741 177.24,33.39 C177.601102,33.1186599 177.935907,32.8139873 178.24,32.48 C178.548585,32.1633022 178.839047,31.8294378 179.11,31.48 C179.38,31.09 179.62,30.76 179.85,30.48 L180,30.27 C180.15,30.88 180.31,31.46 180.49,32.02 C180.650198,32.5438773 180.840515,33.0580665 181.06,33.56 C181.24118,33.9841203 181.469267,34.3866265 181.74,34.76 C181.945969,35.059894 182.220142,35.3066496 182.54,35.48 C182.739673,35.5271385 182.944836,35.4266505 183.03,35.24 L183.14,34.68 L183.14,34.62 L183.14,34.62 C183.157695,34.5364146 183.14123,34.4492238 183.094272,34.3778475 C183.047314,34.3064712 182.973762,34.2568371 182.89,34.24 C182.713405,34.1763164 182.517517,34.2590244 182.44,34.43 C182.211238,34.0989229 182.02006,33.7433983 181.87,33.37 C181.69,32.94 181.51,32.5 181.34,32.03 C181.17,31.56 181.01,31.1 180.87,30.63 C180.73,30.16 180.62,29.77 180.55,29.44 C181.300743,28.3582694 181.969285,27.2217475 182.55,26.04 C183.122462,24.8562365 183.590893,23.6249312 183.95,22.36 C184.302928,21.1072133 184.517541,19.8195314 184.59,18.52 C184.685054,17.2362917 184.614475,15.9456872 184.38,14.68 Z M183.28,21.93 C182.669349,24.2378813 181.711766,26.4396479 180.44,28.46 C180.262132,27.6646954 180.128593,26.8601219 180.04,26.05 C179.95,25.24 179.86,24.42 179.79,23.61 L179.79,23.61 C179.556667,21.8166667 179.376667,20.0366667 179.25,18.27 C179.12,16.5 179.02,14.72 178.97,12.93 L178.97,9.82 C178.963109,8.78103082 179.1958,7.75445519 179.65,6.82 C179.839119,6.80293898 180.027872,6.8563598 180.18,6.97 C180.362291,7.09071904 180.521473,7.24312782 180.65,7.42 C180.797678,7.59245947 180.931431,7.77637052 181.05,7.97 C181.131646,8.1174487 181.225296,8.25792342 181.33,8.39 C181.957789,9.37358317 182.467947,10.4274616 182.85,11.53 C183.230391,12.6164101 183.498458,13.7389393 183.65,14.88 C184.012851,17.2304365 183.886893,19.6304579 183.28,21.93 Z" id="Shape" fill-rule="nonzero"></path>
                    </g>
                </g>
            </g>
        </g>
    </g>
</svg>