<svg viewBox="0 0 500 500" xmlns="http://www.w3.org/2000/svg"><title>icon-pinterest</title><path d="M269.145 83c-94.866 0-142.701 68.016-142.701 124.734 0 34.342 13.003 64.896 40.89 76.284 4.571 1.868 8.67.065 9.995-4.999.922-3.504 3.106-12.345 4.08-16.024 1.336-5.008.818-6.765-2.872-11.13-8.041-9.485-13.18-21.764-13.18-39.156 0-50.461 37.754-95.633 98.31-95.633 53.619 0 83.08 32.763 83.08 76.52 0 57.572-25.48 106.163-63.304 106.163-20.89 0-36.526-17.275-31.515-38.462 6.003-25.296 17.63-52.594 17.63-70.854 0-16.343-8.774-29.976-26.931-29.976-21.354 0-38.508 22.091-38.508 51.683 0 18.847 6.37 31.595 6.37 31.595s-21.852 92.59-25.684 108.805c-7.63 32.293-1.148 71.882-.597 75.88.32 2.37 3.366 2.932 4.742 1.142 1.97-2.57 27.405-33.97 36.05-65.34 2.447-8.884 14.047-54.886 14.047-54.886 6.937 13.233 27.212 24.888 48.773 24.888 64.189 0 107.737-58.517 107.737-136.845C395.557 138.159 345.39 83 269.145 83z" fill="currentColor" fill-rule="evenodd"/></svg>
