
<svg width="132px" height="133px" viewBox="0 0 132 133" version="1.1" xmlns="http://www.w3.org/2000/svg" xmlns:xlink="http://www.w3.org/1999/xlink">
    <title>icon-soft-skin</title>
    <defs>
        <circle id="path-1" cx="63" cy="63" r="63"></circle>
    </defs>
    <g id="Homepage" stroke="none" stroke-width="1" fill="none" fill-rule="evenodd">
        <g id="Responsibly-Sourced" transform="translate(-434.000000, -3590.000000)">
            <g id="Group-20-Copy-2" transform="translate(0.000000, 1868.000000)">
                <g id="Group-15" transform="translate(434.000000, 1722.000000)">
                    <g id="Bitmap" transform="translate(3.000000, 4.000000)">
                        <mask id="mask-2" fill="white">
                            <use xlink:href="#path-1"></use>
                        </mask>
                        <use id="Mask" fill="#FFFFFF" fill-rule="nonzero" xlink:href="#path-1"></use>
                        <g id="hand" mask="url(#mask-2)">
                            <g transform="translate(41.000000, 35.000000)" id="noun_Hand_728334_000000">
                                <g>
                                    <path d="M44.375,14.607033 C44.3274994,12.1786492 42.3547545,10.2321563 39.93125,10.2224176 C39.2569581,10.2237734 38.5919715,10.3802066 37.9875,10.6796703 L37.9875,9.92802198 C37.9933111,8.17838887 37.0698207,6.55780414 35.5632335,5.67380377 C34.0566462,4.78980341 32.1945423,4.77592167 30.675,5.63736264 L30.675,5.41813187 C30.675,2.65063906 28.4364237,0.407142857 25.675,0.407142857 C22.9135763,0.407142857 20.675,2.65063906 20.675,5.41813187 L20.675,5.5621978 C19.2123254,4.77839335 17.4464382,4.82176581 16.0238303,5.67643651 C14.6012225,6.53110721 13.7308095,8.07156443 13.73125,9.73384615 L13.73125,28.9259341 C13.7289353,29.0880823 13.663963,29.2430115 13.55,29.3581319 C13.3069728,29.5968697 12.9180272,29.5968697 12.675,29.3581319 L10.85625,27.3412088 C8.93489217,25.2106823 6.14681906,24.0777735 3.2875,24.2657143 C2.18769821,24.3388066 1.19871291,24.9624619 0.657023169,25.9244963 C0.115333426,26.8865306 0.0938943181,28.0573766 0.6,29.0386813 L9.7,46.6648352 C12.2212866,51.3800689 16.6656926,54.7618571 21.875,55.9289011 C23.1794524,56.2243674 24.5126466,56.373526 25.85,56.3736264 C29.4651117,56.3967883 32.9883563,55.2329922 35.88125,53.0601099 C40.83125,49.3018681 44.26875,43.0882418 44.4375,37.6012088 C44.65,30.899011 44.44375,18.6408791 44.375,14.607033 Z M41.95625,37.5323077 C41.8125,42.299011 38.75,47.7421978 34.375,51.0682418 C30.9428319,53.601972 26.5691715,54.4868795 22.425,53.486044 C17.933018,52.4847612 14.0980498,49.5742056 11.91875,45.5123077 L2.7875,27.8673626 C2.66941075,27.6377596 2.67398944,27.3641265 2.79969399,27.1386208 C2.92539855,26.9131151 3.15549928,26.7657489 3.4125,26.7461538 C5.51125779,26.6063995 7.55837288,27.4371994 8.96875,29.0010989 L10.7875,31.018022 C11.6573025,31.949521 13.0039536,32.2591643 14.1919303,31.8008225 C15.3799069,31.3424807 16.1717436,30.207772 16.19375,28.9321978 L16.19375,9.7589011 C16.19375,8.52909648 17.1885173,7.53214286 18.415625,7.53214286 C19.6427327,7.53214286 20.6375,8.52909648 20.6375,9.7589011 L20.6375,24.4849451 C20.6375,25.1768183 21.1971441,25.7376923 21.8875,25.7376923 C22.5778559,25.7376923 23.1375,25.1768183 23.1375,24.4849451 L23.1375,5.44318681 C23.1375,4.05944041 24.2567881,2.93769231 25.6375,2.93769231 C27.0182119,2.93769231 28.1375,4.05944041 28.1375,5.44318681 L28.1375,23.276044 C28.1375,23.9679172 28.6971441,24.5287912 29.3875,24.5287912 C30.0778559,24.5287912 30.6375,23.9679172 30.6375,23.276044 L30.6375,9.94054945 C30.6375,8.60869353 31.7148148,7.52901099 33.04375,7.52901099 C34.3726852,7.52901099 35.45,8.60869353 35.45,9.94054945 L35.45,26.7524176 C35.45,27.4442908 36.0096441,28.0051648 36.7,28.0051648 C37.3903559,28.0051648 37.95,27.4442908 37.95,26.7524176 L37.95,14.6884615 C37.9396447,13.6022206 38.8098912,12.7132353 39.89375,12.7028572 C40.9776088,12.6924791 41.8646446,13.5646382 41.875,14.6508791 C41.94375,18.6659341 42.15,30.8802198 41.95625,37.5323077 Z" id="Shape" fill="#35D8CF" fill-rule="nonzero"></path>
                                </g>
                            </g>
                        </g>
                    </g>
                    <g id="watercolor-circle" fill="#35D8CF">
                        <g id="Group">
                            <path d="M70.1729286,0.988449704 C70.2821429,0.65791716 69.7447143,0.585514793 69.08,0.840497041 C68.8537143,0.927852071 68.6682857,1.10807101 68.6682857,1.24107101 C68.6682857,1.58655621 70.0495714,1.35518343 70.1729286,0.988449704" id="Fill-159"></path>
                            <path d="M13.2730714,55.6884379 C12.903,55.547568 12.5227143,55.5247456 12.4268571,55.637284 C12.3317857,55.7506095 11.9986429,56.1810888 11.6882857,56.5958284 C10.9835,57.5339112 10.9772143,57.7983373 11.6607857,57.7983373 C11.9577857,57.7983373 12.5918571,57.3820237 13.0727143,56.8720592 L13.9456429,55.9449941 L13.2730714,55.6884379" id="Fill-160"></path>
                            <path d="M6.25428571,66.0750296 C6.732,65.9152722 6.66521429,62.6233254 6.18357143,62.6233254 C5.97692857,62.6233254 5.72785714,62.9168698 5.62728571,63.2757337 C5.5275,63.6345976 5.43557143,63.9871657 5.42142857,64.0579941 C5.33342857,64.5325444 6.00442857,66.1584497 6.25428571,66.0750296" id="Fill-161"></path>
                            <path d="M7.48157143,67.5742308 C6.77757143,68.2510355 6.69585714,68.273071 6.52928571,67.8355089 C6.35328571,67.3774852 6.33678571,67.3782722 6.15528571,67.8591183 C5.91642857,68.493426 5.99814286,71.3832249 6.26685714,71.818426 C6.57878571,72.3244556 7.37628571,71.7656982 7.71021429,70.8071538 C7.9035,70.2539053 7.91135714,69.8761538 7.7385,69.6660296 C7.55857143,69.4496095 7.65835714,69.0230651 8.05985714,68.2880237 C8.78821429,66.9572367 8.49828571,66.5991598 7.48157143,67.5742308" id="Fill-162"></path>
                            <path d="M6.17571429,60.5527751 C6.17571429,60.0483195 5.73257143,59.7988462 5.56678571,60.2096509 C5.33814286,60.7786391 5.38371429,60.9281657 5.78442857,60.9281657 C5.99971429,60.9281657 6.17571429,60.7597515 6.17571429,60.5527751" id="Fill-163"></path>
                            <path d="M21.2504286,43.1935207 C21.0917143,43.1935207 21.0296429,43.0180237 21.1113571,42.8023905 C21.1946429,42.5875444 21.1482857,42.4112604 21.0092143,42.4112604 C20.8709286,42.4112604 20.757,42.5001893 20.757,42.6080059 C20.757,42.7166095 20.4057857,42.9613609 19.976,43.1525976 C19.5132143,43.357213 19.195,43.6948284 19.195,43.9828639 C19.195,44.2496509 19.0771429,44.5392604 18.9349286,44.6281893 C18.5483571,44.866645 18.6182857,45.2034734 19.0912857,45.3836923 C19.3552857,45.485213 19.6915714,45.309716 20.009,44.9067811 C20.2847857,44.555 20.7412857,44.1945621 21.0249286,44.1040592 C21.5631429,43.932497 21.747,43.1935207 21.2504286,43.1935207" id="Fill-164"></path>
                            <path d="M6.66678571,73.3349408 C6.26607143,73.5836272 6.41535714,73.8567101 6.97635714,73.8992071 C7.41714286,73.9322604 7.45957143,73.8708757 7.20735714,73.5655266 C7.03685714,73.3601243 6.79328571,73.2570296 6.66678571,73.3349408" id="Fill-165"></path>
                            <path d="M16.1998571,51.0176982 C16.4151429,50.8398402 16.5927143,50.4432012 16.5950714,50.1386391 C16.5974286,49.8332899 17.0672857,49.122645 17.6369286,48.5591657 C18.2073571,47.9964734 18.6740714,47.4463728 18.6740714,47.3369822 C18.6740714,46.8577101 18.0887143,46.8396095 17.6840714,47.305503 C17.4412857,47.5848817 16.9682857,47.9004615 16.6343571,48.0059172 C16.0332857,48.1955799 16.0309286,48.189284 16.4685714,47.5219231 C16.7121429,47.1496805 17.0146429,46.8451183 17.1419286,46.8451183 C17.2684286,46.8451183 17.3721429,46.727858 17.3721429,46.5838402 C17.3721429,46.4406095 17.1442857,46.3233491 16.8669286,46.3233491 C16.5887857,46.3233491 16.2886429,46.4406095 16.1998571,46.5838402 C16.1126429,46.727858 15.8140714,46.8451183 15.5367143,46.8451183 C15.2185,46.8451183 14.905,47.1536154 14.6771429,47.6926982 C14.4799286,48.1585917 13.9503571,48.8637278 13.5017143,49.2595799 C12.9839286,49.7160296 12.6853571,50.2252071 12.6853571,50.6501775 C12.6853571,51.0200592 12.7733571,51.2774024 12.881,51.2215266 C12.9878571,51.1656509 13.4891429,50.9311302 13.9943571,50.6981834 C14.5891429,50.4258876 15.081,49.9253669 15.3929286,49.2784675 C15.851,48.323071 15.8824286,48.3057574 16.0961429,48.8747456 C16.2729286,49.344574 16.1511429,49.7057988 15.5241429,50.5706923 C15.0857143,51.1750947 14.5317857,51.6764024 14.2921429,51.6842722 C14.0532857,51.692929 13.6015,51.8393077 13.288,52.0100828 C12.9752857,52.181645 12.419,52.3217278 12.0512857,52.3217278 C11.2435714,52.3217278 11.2003571,52.6530473 11.924,53.3274911 C12.3317857,53.7091775 12.3836429,53.8815266 12.1345714,54.0357751 C11.9452143,54.1530355 11.7613571,54.1089645 11.7032143,53.9334675 C11.6458571,53.7642663 11.4926429,53.6257574 11.3614286,53.6257574 C11.2302143,53.6257574 11.1233571,53.7438047 11.1233571,53.8870355 C11.1233571,54.0302663 11.2262857,54.1475266 11.3527857,54.1475266 C11.4792857,54.1475266 11.6442857,54.3828343 11.7189286,54.6692959 C11.8807857,55.2894379 12.6358571,55.3634142 12.859,54.7802604 C12.9697857,54.4930118 13.2078571,54.4174615 13.6541429,54.530787 C14.5702857,54.7605858 15.2145714,54.4819941 15.3905714,53.7792189 C15.4738571,53.4439645 15.8376429,52.9749231 16.1975,52.7396154 C16.9800714,52.224929 17.0570714,51.7960237 16.3302857,51.9856864 C15.7009286,52.1509527 15.6145,51.5056272 16.1998571,51.0176982" id="Fill-166"></path>
                            <path d="M9.13235714,60.4835207 C9.65564286,59.8216686 10.1577143,57.4331775 9.87957143,56.924787 C9.757,56.701284 8.80078571,59.1125976 8.68135714,59.9452249 C8.646,60.1931243 8.536,60.4772249 8.437,60.5755976 C8.21621429,60.7967396 8.20207143,61.1886568 8.41657143,61.1886568 C8.503,61.1886568 8.82514286,60.871503 9.13235714,60.4835207" id="Fill-167"></path>
                            <path d="M19.1156429,90.7665976 C19.2877143,91.0743077 19.7269286,91.6078817 20.0922857,91.9517929 C21.1498571,92.9465385 20.9392857,91.9738284 19.7159286,90.2078402 C19.1431429,89.3807219 18.6748571,88.5591124 18.6740714,88.3812544 C18.6740714,88.2041834 18.5012143,87.8516154 18.2882857,87.5989941 C18.0761429,87.3463728 17.7288571,86.9048757 17.5182857,86.6176272 C17.1678571,86.1438639 17.1584286,86.1926568 17.4122143,87.1393964 C17.6605,88.0672485 17.9197857,88.6181361 19.1156429,90.7665976" id="Fill-168"></path>
                            <path d="M16.1723571,44.3511716 C16.5149286,44.2653905 16.8732143,44.3212663 16.9690714,44.4763018 C17.1670714,44.7973905 17.633,44.8579882 17.6298571,44.5628698 C17.6298571,44.4550533 17.3257857,44.2268284 16.9549286,44.0544793 C16.4300714,43.8105148 16.2022143,43.8105148 15.9256429,44.0544793 C15.4290714,44.4912544 15.4612857,44.5298166 16.1723571,44.3511716" id="Fill-169"></path>
                            <path d="M31.4332857,106.30871 C31.4332857,106.452728 31.5495714,106.569988 31.6941429,106.569988 C31.8371429,106.569988 31.9534286,106.452728 31.9534286,106.30871 C31.9534286,106.165479 31.8371429,106.048219 31.6941429,106.048219 C31.5495714,106.048219 31.4332857,106.165479 31.4332857,106.30871" id="Fill-170"></path>
                            <path d="M14.4052857,79.8960118 C14.5797143,79.7213018 14.4893571,79.4867811 13.8317143,78.4023195 C13.4388571,77.7538462 13.4372857,77.7546331 13.6085714,78.6635976 C13.794,79.6410296 14.1342143,80.1675207 14.4052857,79.8960118" id="Fill-171"></path>
                            <path d="M22.3221429,97.5739941 C22.7197143,98.0548402 23.0874286,98.0556272 23.7191429,97.577142 C24.1827143,97.224574 24.1740714,97.1986036 23.5235,97.0356982 C23.1487143,96.9412604 22.6521429,96.9365385 22.4203571,97.0254675 L22.4203571,97.0246805 C22.0801429,97.1553195 22.0612857,97.2592012 22.3221429,97.5739941" id="Fill-172"></path>
                            <path d="M13.2023571,82.7865976 C13.2047143,82.5442071 13.0884286,82.2726982 12.9462143,82.1845562 C12.6162143,81.9799408 12.6162143,82.326213 12.9462143,82.8361775 C13.1630714,83.1737929 13.1984286,83.1667101 13.2023571,82.7865976" id="Fill-173"></path>
                            <path d="M12.4245,84.7768757 C12.4245,85.0003787 12.5423571,85.1837456 12.6853571,85.1837456 C12.8283571,85.1837456 12.9462143,85.073568 12.9462143,84.9382071 C12.9462143,84.8036331 12.8283571,84.6194793 12.6853571,84.5321243 C12.5423571,84.4431953 12.4245,84.5533728 12.4245,84.7768757" id="Fill-174"></path>
                            <path d="M16.3475714,84.2802899 C15.9012857,84.0048462 16.0254286,85.1018994 16.4913571,85.5685799 C16.7239286,85.8007396 16.9612143,85.9431834 17.0193571,85.8849467 C17.1827857,85.7212544 16.6587143,84.4738876 16.3475714,84.2802899" id="Fill-175"></path>
                            <path d="M35.3390714,14.2443787 C35.6258571,14.2443787 35.86,14.2892367 35.86,14.3443254 C35.86,14.3994142 35.6258571,14.5056568 35.3390714,14.5812071 C35.0515,14.6559704 34.8173571,14.6103254 34.8173571,14.4804734 C34.8173571,14.3506213 35.0515,14.2443787 35.3390714,14.2443787 Z M49.7129286,9.80894675 C50.5685714,9.81052071 50.7932857,9.65942012 51.6976429,8.47186391 L52.7167143,7.1332071 L54.6975,7.07418343 C55.8697857,7.03876923 56.8487857,6.87428994 57.0923571,6.6720355 C57.3194286,6.48315976 57.9362143,6.28798817 58.4642143,6.2376213 C58.993,6.18804142 59.5995714,6.07156805 59.8148571,5.97870414 C60.0301429,5.88662722 61.1435,5.79218935 62.2890714,5.76936686 C63.4338571,5.7457574 64.6941429,5.57104734 65.0877857,5.37902367 C65.8334286,5.01779882 66.0416429,4.5975503 65.4790714,4.59046746 C65.2614286,4.58810651 65.2834286,4.50232544 65.5435,4.33391124 C66.1382857,3.94986391 67.3553571,4.02462722 67.8024286,4.47242012 C68.1175,4.788 68.5920714,4.84072781 70.0621429,4.72268047 C73.9365,4.4110355 78.0528571,4.41418343 78.4818571,4.72818935 C79.0672143,5.15709467 78.6845714,5.63794083 77.7574286,5.63794083 C77.3307857,5.63794083 76.6904286,5.82917751 76.3337143,6.06291124 C75.7703571,6.43357988 75.4906429,6.44695858 74.1777143,6.16757988 C72.1387857,5.73552663 67.6987143,6.15105325 66.7943571,6.86012426 C66.6073571,7.00650296 65.5175714,7.27801183 64.372,7.46295266 C63.2264286,7.64868047 62.1712143,7.88556213 62.0282143,7.98944379 C61.589,8.30738462 59.257,8.58597633 57.4066429,8.54190533 C55.8391429,8.50491716 55.649,8.55371006 55.649,8.99442012 C55.649,9.38948521 55.4792857,9.47762722 54.802,9.43276923 C54.3368571,9.40207692 53.8088571,9.49021893 53.6297143,9.62715385 C53.449,9.76487574 52.8212143,9.80028994 52.2319286,9.70506509 C51.293,9.55475148 51.1814286,9.58859172 51.3299286,9.97736095 C51.5774286,10.6203254 51.0423571,10.8454024 49.2619286,10.8501243 C48.2687857,10.8524852 47.4807143,11.0027988 47.1137857,11.260142 C46.7955714,11.483645 46.4168571,11.5938225 46.2746429,11.5056805 C46.1316429,11.4167515 46.0169286,11.2632899 46.0185,11.1649172 C46.0279286,10.8115621 48.7645714,9.8065858 49.7129286,9.80894675 Z M66.0644286,1.85570414 C66.2082143,1.94463314 66.3252857,2.06897633 66.3252857,2.13193491 C66.3252857,2.19568047 66.2082143,2.24683432 66.0644286,2.24683432 C65.9214286,2.24683432 65.8043571,2.12249112 65.8043571,1.97060355 C65.8043571,1.81950296 65.9214286,1.76756213 66.0644286,1.85570414 Z M70.4039286,3.33680473 C71.0576429,3.46272189 71.1472143,4.07263314 70.5131429,4.07263314 C70.1925714,4.07263314 69.971,3.90421893 69.971,3.66261538 C69.971,3.41943787 70.147,3.28722485 70.4039286,3.33680473 Z M74.6145714,2.99761538 C74.8738571,3.16209467 74.8070714,3.25889349 74.3537143,3.38087574 C74.0197857,3.4713787 73.5994286,3.54535503 73.4202857,3.54771598 C73.2419286,3.55007692 73.0942143,3.37536686 73.0942143,3.15973373 C73.0942143,2.73318935 74.0378571,2.63166864 74.6145714,2.99761538 Z M59.9452857,10.1591538 C59.3057143,10.194568 59.1485714,10.0891124 59.0762857,9.58150888 C58.9961429,9.01566864 59.0629286,8.97395858 59.8580714,9.09436686 C60.3357857,9.16676923 60.9486429,9.11010651 61.2205,8.96687574 C61.5952857,8.77091716 61.7712857,8.81026627 61.9496429,9.12978107 C62.0792857,9.36036686 62.3542857,9.5492426 62.5625,9.5492426 C62.7699286,9.5492426 62.9388571,9.6381716 62.9388571,9.74520118 C62.9372857,9.92305917 62.084,10.0411065 59.9452857,10.1591538 Z M80.63,4.33391124 C80.7651429,4.33391124 80.9474286,4.4511716 81.037,4.59440237 C81.125,4.73842012 81.0142143,4.85489349 80.7918571,4.85489349 C80.5679286,4.85489349 80.3864286,4.73842012 80.3864286,4.59440237 C80.3864286,4.4511716 80.4964286,4.33391124 80.63,4.33391124 Z M15.2200714,30.9221065 C16.2352143,31.2896272 15.906,31.4635503 18.8932857,28.9798343 C19.7552143,28.2621065 20.4686429,27.5412308 20.4780714,27.3775385 C20.4882857,27.2138462 20.6729286,27.0123787 20.8874286,26.9289586 C21.1019286,26.8463254 21.2779286,26.4819527 21.2779286,26.1183669 C21.2779286,25.7295976 21.4272143,25.4588757 21.6385714,25.4588757 C22.5366429,25.4588757 25.1082857,23.6181243 27.0065714,21.6176154 C27.6901429,20.8975266 28.1348571,20.5095444 30.1313571,18.8883609 C31.2054286,18.0171716 32.274,17.114503 32.5081429,16.8831302 C33.4376429,15.9568521 34.067,15.5484083 34.5604286,15.5484083 C34.8456429,15.5484083 35.079,15.4342959 35.079,15.295 C35.079,15.1557041 35.2487143,15.1084852 35.4569286,15.1879704 C35.6659286,15.2690296 36.1012143,15.1478343 36.4257143,14.9196095 C36.751,14.6913846 37.2114286,14.5048698 37.4502857,14.5048698 C37.6899286,14.5048698 38.4536429,14.1161006 39.1497857,13.6399763 C41.0111429,12.369 44.385,10.772213 44.8391429,10.9469231 C45.4614286,11.1853787 45.3019286,11.5607692 44.4525714,11.8574615 C44.022,12.0077751 43.6715714,12.3005325 43.6715714,12.5082959 C43.6715714,12.810497 43.8640714,12.8396154 44.6474286,12.6570355 C45.9085,12.3642781 46.2754286,12.3634911 46.2754286,12.6546746 C46.2754286,12.7845266 45.6594286,12.9749763 44.9075,13.076497 C44.1563571,13.1788047 43.2252857,13.4243432 42.8379286,13.6226627 C42.4505714,13.8209822 41.8974286,13.9831006 41.6082857,13.9831006 C40.3519286,13.9831006 36.9010714,15.9458343 36.9010714,16.6596272 C36.9010714,16.7910533 36.6378571,17.1302426 36.3157143,17.4119822 L35.7295714,17.9250947 L36.3809286,17.6103018 C36.7384286,17.4371657 37.0904286,17.2097278 37.1619286,17.1042722 C37.2334286,16.9988166 37.9130714,17.0413136 38.6728571,17.1979231 C39.7194286,17.4135562 40.1751429,17.4064734 40.5562143,17.1664438 C40.8335714,16.9940947 41.2492143,16.8524379 41.4794286,16.8524379 C41.7096429,16.8524379 42.2101429,16.6297219 42.592,16.357426 C42.9730714,16.0851302 43.7682143,15.7325621 44.3590714,15.5735917 C44.9499286,15.4138343 45.5682857,15.1202899 45.7332857,14.9211834 C45.8982857,14.7220769 46.2495,14.6150473 46.5135,14.6843018 C46.783,14.7551302 47.2080714,14.5906509 47.4815,14.3104852 C47.7486429,14.0358284 48.7551429,13.4817929 49.7168571,13.078858 C51.4006429,12.3745089 51.491,12.3634911 52.1423571,12.7908225 C52.5729286,13.0741361 52.9312143,13.1496864 53.1276429,12.9985858 C53.2965714,12.8679467 54.3140714,12.4894083 55.3881429,12.1565148 C56.4622143,11.8236213 57.3877857,11.5143373 57.4435714,11.4694793 C57.5001429,11.4246213 57.398,11.2089882 57.2165,10.9902071 C56.9336429,10.6486568 57.0012143,10.5927811 57.6965714,10.5927811 C58.1412857,10.5927811 59.0236429,10.7312899 59.6561429,10.9012781 C61.0743571,11.2806036 63.1761429,10.8800296 64.5173571,9.97185207 C65.5238571,9.29189941 67.3663571,8.84174556 67.3663571,9.27694675 C67.3663571,9.42726036 67.4905,9.5492426 67.6421429,9.5492426 C67.7937857,9.5492426 67.8527143,9.44457396 67.7741429,9.31629586 C67.5675,8.98104142 68.0640714,8.85591124 69.8405714,8.79452663 C70.6993571,8.7646213 72.1537143,8.63476923 73.0722143,8.50649112 C73.9915,8.37821302 74.9280714,8.36798225 75.1551429,8.48445562 C75.9259286,8.87873373 77.8289286,9.0526568 78.1793571,8.76147337 C78.3655714,8.60643787 79.475,8.46714201 80.6457143,8.45218935 C81.9932143,8.43408876 82.896,8.30187574 83.1065714,8.09017751 C83.2904286,7.90681065 83.7909286,7.76751479 84.2191429,7.77931953 C85.3890714,7.81237278 85.7206429,7.51489349 85.1792857,6.916 C84.6528571,6.33363314 84.2592143,6.31474556 82.8787143,6.80739645 C82.0827857,7.09228402 81.5657857,7.1111716 80.5357143,6.89632544 C78.4174286,6.45561538 78.3577143,6.40524852 79.4742143,6.01018343 C80.2630714,5.73080473 80.6842143,5.70955621 81.2122143,5.92361538 C82.2674286,6.35173373 83.5725,5.76936686 82.7294286,5.24681065 C82.0992857,4.85646746 82.5777857,4.59440237 83.9182143,4.59440237 C84.7149286,4.59440237 85.5862857,4.47635503 85.8542143,4.33391124 C86.1826429,4.15762722 86.5778571,4.16392308 87.0728571,4.35279882 C87.6134286,4.55898817 88.0652143,4.54797041 88.7857143,4.31030178 C89.4818571,4.08128994 89.9336429,4.0655503 90.3477143,4.256 C91.1750714,4.63768639 93.2831429,5.1161716 94.1325,5.1161716 C94.9637857,5.1161716 96.0912857,5.81422485 95.8618571,6.18725444 C95.7754286,6.32733728 95.4807857,6.36983432 95.2057857,6.28247929 C94.4279286,6.03536686 94.6196429,6.33835503 95.5279286,6.79244379 C95.9797143,7.01752071 96.6381429,7.20246154 96.9901429,7.20246154 C97.5315,7.20246154 97.6124286,7.10172781 97.5102857,6.56343195 C97.4285714,6.13846154 97.526,5.87167456 97.8002143,5.76621893 C98.5427143,5.48054438 95.9011429,4.06633728 94.4295,3.96166864 C93.72,3.91051479 92.8392143,3.67205917 92.4730714,3.4312426 C92.1069286,3.19121302 91.4925,3.01492899 91.1082857,3.03932544 C90.7248571,3.06450888 89.6091429,3.0723787 88.6285714,3.05663905 C87.0783571,3.03302959 86.8285,2.9614142 86.7098571,2.50811243 C86.5896429,2.04694083 86.3547143,1.9863432 84.6835,1.9863432 C83.4224286,1.9863432 82.6964286,1.86986982 82.5039286,1.63692308 C82.3444286,1.44489941 81.5705,1.14427219 80.7832143,0.967988166 C79.9967143,0.79091716 79.2887857,0.543017751 79.2102143,0.416313609 C79.0137857,0.0952248521 77.1728571,0.295118343 77.0542143,0.651621302 C76.9127857,1.07816568 75.5409286,1.00733728 75.0836429,0.550100592 C74.8510714,0.317940828 74.6263571,0.260491124 74.5328571,0.410017751 C74.4472143,0.550100592 73.6599286,0.639029586 72.7830714,0.608337278 C70.6985714,0.534360947 70.4322143,1.07108284 72.4287143,1.3213432 C74.1376429,1.53540237 74.6106429,1.9863432 73.1256429,1.9863432 C72.5528571,1.9863432 72.0107143,1.86829586 71.9227143,1.72427811 C71.8237143,1.56530769 71.5911429,1.55271598 71.3208571,1.69437278 C71.0796429,1.82107692 70.4023571,2.00523077 69.8154286,2.10202959 C68.8717857,2.25863905 68.7012857,2.20591124 68.3335714,1.64321893 C67.9595714,1.0726568 67.8063571,1.0285858 66.8289286,1.20644379 C65.769,1.40161538 65.2952143,1.78015385 65.2873571,2.4427929 C65.2818571,2.87642012 64.5165714,2.85831953 64.0019286,2.41210059 C63.3450714,1.84311243 62.1586429,1.64085799 62.1586429,2.09888166 C62.1586429,2.3097929 62.3637143,2.59704142 62.6143571,2.73791124 C63.0237143,2.96692308 63.0032857,3.01807692 62.414,3.24236686 C61.7547857,3.4934142 60.8017143,3.47295266 59.906,3.18885207 C59.6412143,3.10543195 59.0888571,3.21088757 58.6787143,3.42415976 C58.2685714,3.63743195 57.5653571,3.7995503 57.1159286,3.78538462 L56.2995714,3.75862722 L57.211,3.47531361 C58.0957143,3.19986982 58.5011429,2.87012426 58.5097857,2.41839645 C58.5152857,2.1059645 55.9554286,2.48922485 54.868,2.96298817 C54.3659286,3.18098225 53.5762857,3.33523077 53.1103571,3.30532544 C52.6444286,3.27542012 52.2649286,3.37694083 52.2649286,3.53118935 C52.2649286,3.68622485 52.4393571,3.81135503 52.6546429,3.81135503 C52.8691429,3.81135503 53.0459286,3.94278107 53.0459286,4.10332544 C53.0459286,4.27882249 52.7662143,4.34099408 52.3435,4.26072189 C51.9223571,4.17966272 51.2749286,4.32289349 50.7202143,4.62115976 C50.2126429,4.89266864 49.6131429,5.11538462 49.3868571,5.11538462 C49.1605714,5.11538462 48.3968571,5.3955503 47.6873571,5.73867456 C45.6012857,6.74679882 44.4258571,6.99863314 43.9237857,6.54297041 C43.3863571,6.05661538 42.2659286,6.0471716 41.8675714,6.52723077 C41.4566429,7.02302959 41.9272857,7.30476923 42.8002143,7.08520118 C43.9811429,6.78850888 43.3392143,7.56447337 42.0899286,7.94379882 C41.4566429,8.13660947 40.568,8.46005917 40.117,8.66152663 C39.6652143,8.86299408 39.1089286,9.02826036 38.8795,9.02826036 C38.6500714,9.02826036 38.4630714,9.14552071 38.4630714,9.28875148 C38.4630714,9.43198225 38.2422857,9.5492426 37.9704286,9.5492426 C37.6993571,9.5492426 37.4070714,9.73339645 37.3214286,9.95768639 C37.2357857,10.1819763 37.0574286,10.2984497 36.9262143,10.2173905 C36.4123571,9.8994497 35.8183571,10.3921006 35.9731429,11.0090947 C36.1342143,11.6544201 35.5135,12.1974379 34.8747143,11.9676391 C34.6908571,11.9015325 34.2563571,12.0353195 33.9075,12.2635444 C33.5594286,12.4925562 33.0942857,12.679071 32.8742857,12.679071 C32.6542857,12.679071 32.4743571,12.7837396 32.4743571,12.9096568 C32.4743571,13.0363609 32.2692857,13.2173669 32.0194286,13.3125917 C30.5155714,13.878432 28.9237143,14.9998817 28.6031429,15.7168225 C28.2322857,16.5486627 26.4337857,17.8959763 25.6920714,17.8959763 C25.2222143,17.8959763 24.4781429,18.6231479 24.0326429,19.5163728 C23.8762857,19.8319527 23.4936429,20.1538284 23.1840714,20.2317396 C22.8745,20.3096509 22.2388571,20.7165207 21.7713571,21.1351953 C21.0249286,21.8049172 20.9785714,21.9174556 21.3918571,22.0630473 C21.8177143,22.212574 21.8035714,22.2645148 21.2449286,22.6147219 C20.9047143,22.8264201 20.3107143,23.1372781 19.9241429,23.3049053 C19.5375714,23.4725325 19.0111429,23.9344911 18.7526429,24.3327041 C18.4949286,24.7301302 17.787,25.5863669 17.1796429,26.2348402 C16.5730714,26.8841006 16.0081429,27.619929 15.9256429,27.8717633 C15.8423571,28.1220237 15.6655714,28.328213 15.532,28.328213 C15.3984286,28.328213 15.0841429,28.5328284 14.8335,28.7854497 C14.5828571,29.036497 14.3612857,29.5456746 14.3424286,29.9163432 C14.3141429,30.4640828 14.4799286,30.6545325 15.2200714,30.9221065 L15.2200714,30.9221065 Z" id="Fill-176"></path>
                            <path d="M21.6535,42.1499822 C21.7163571,42.1499822 21.8405,42.0327219 21.9285,41.8902781 C22.0172857,41.7462604 21.9654286,41.629 21.8145714,41.629 C21.6629286,41.629 21.538,41.7462604 21.538,41.8902781 C21.538,42.0327219 21.5906429,42.1499822 21.6535,42.1499822" id="Fill-177"></path>
                            <path d="M23.1007857,40.6248107 C22.5162143,40.4201953 22.3197857,40.431213 22.3197857,40.6649467 C22.3197857,40.8365089 22.671,41.0017751 23.1007857,41.0316805 C24.0923571,41.1009349 24.0915714,40.9710828 23.1007857,40.6248107" id="Fill-178"></path>
                            <path d="M37.6176429,115.334609 C37.0833571,114.929314 37.0511429,114.753817 37.4612857,114.500408 C37.6270714,114.398101 37.9193571,114.530314 38.1126429,114.795527 C38.7514286,115.671438 38.4677857,115.981509 37.6176429,115.334609 Z M32.1475,119.763746 C32.0634286,119.84874 31.7797857,119.866053 31.5181429,119.803882 C31.0632143,119.696065 31.0632143,119.681899 31.5095,119.488302 C31.9801429,119.282899 32.4319286,119.478858 32.1475,119.763746 Z M26.2247857,105.00468 C26.0817857,105.00468 25.9655,104.88742 25.9655,104.744189 C25.9655,104.600959 26.0817857,104.483698 26.2247857,104.483698 C26.3693571,104.483698 26.4856429,104.600959 26.4856429,104.744189 C26.4856429,104.88742 26.3693571,105.00468 26.2247857,105.00468 Z M25.7046429,101.588391 C25.7046429,101.448308 25.8688571,101.484509 26.0692143,101.66945 C26.4738571,102.044053 26.4141429,102.284083 25.982,102.015722 C25.8295714,101.922071 25.7046429,101.730047 25.7046429,101.588391 Z M14.5632143,89.0006095 C14.025,89.022645 13.7578571,88.8581657 13.5221429,88.358432 C13.1002143,87.4636331 13.1182857,87.3542426 13.717,87.1968462 C14.3707143,87.026071 14.8602143,87.6107988 14.6425714,88.2994083 C14.5121429,88.711 14.5663571,88.7959941 14.8806429,88.6747988 C15.1053571,88.5882308 15.2892143,88.620497 15.2892143,88.7440533 C15.2892143,88.8683964 14.9623571,88.9840828 14.5632143,89.0006095 Z M4.68914286,46.7223491 C5.15978571,46.5185207 5.61314286,46.7129053 5.32714286,46.9985799 C5.24385714,47.082787 4.96021429,47.1008876 4.69778571,47.039503 C4.24364286,46.9308994 4.24364286,46.9167337 4.68914286,46.7223491 Z M7.15078571,49.0384379 C7.35742857,49.2454142 6.94178571,49.7136686 6.5505,49.7136686 C6.34464286,49.7136686 6.17571429,49.609787 6.17571429,49.4807219 C6.17571429,49.2162959 6.96771429,48.856645 7.15078571,49.0384379 Z M6.45307143,43.5744201 C6.6055,43.4799822 6.787,43.4587337 6.85535714,43.5272012 C6.92371429,43.5956686 6.798,43.7207988 6.57721429,43.8057929 C6.11914286,43.9812899 6.03821429,43.8309763 6.45307143,43.5744201 Z M7.48235714,47.215 C7.06907143,47.6305266 6.91742857,47.658071 6.58114286,47.3786923 C5.99971429,46.8962722 6.0775,46.6090237 6.8695,46.3068225 C7.80292857,45.9518935 8.18164286,46.5130118 7.48235714,47.215 Z M9.75542857,41.5660414 C9.812,41.316568 10.2307857,41.0049231 10.6865,40.8727101 C11.1414286,40.741284 11.3087857,40.6224497 11.0573571,40.609858 C10.2009286,40.565 10.813,39.5427101 11.6961429,39.5427101 C11.9530714,39.5427101 12.1636429,39.4380414 12.1636429,39.3121243 C12.1636429,39.1846331 12.4567143,38.8895148 12.8157857,38.6534201 C13.6502143,38.1056805 13.6517857,38.523568 12.8189286,39.4640118 C11.6898571,40.7397101 11.6435,40.8144734 11.6435,41.3567041 C11.6435,41.7391775 11.4745714,41.8902781 11.0455714,41.8902781 C10.7155714,41.8902781 10.318,42.0177692 10.1632143,42.1735917 C9.82378571,42.5127811 9.61164286,42.1964142 9.75542857,41.5660414 Z M131.156143,62.6241124 C130.881929,60.0341538 130.721643,57.6857988 130.517357,53.2912899 C130.357071,49.8356509 129.328571,46.8057692 126.126,40.3619586 C125.325357,38.748645 123.151286,36.1523905 122.602857,36.1523905 C122.276,36.1523905 120.529357,34.9892308 120.123143,34.5005148 C119.744429,34.0456391 117.377071,32.3835325 116.71,32.1041538 C116.423214,31.9845325 115.749071,31.8704201 115.212429,31.8515325 C114.435357,31.8239882 114.235786,31.9113432 114.235786,32.2827988 C114.235786,32.540142 114.557929,32.9533077 114.952357,33.2019941 C115.346,33.4522544 116.137214,34.0212426 116.71,34.4682485 C117.282786,34.9160414 118.385143,35.6644615 119.160643,36.131929 C120.914357,37.1896331 121.443929,37.8058402 121.817929,39.2208343 C121.979,39.8331065 122.213929,40.3981598 122.339643,40.475284 C122.465357,40.5524083 122.568286,40.8152604 122.569857,41.0576509 C122.570643,41.3000414 122.746643,41.8351893 122.960357,42.2459941 C123.174857,42.6567988 123.349286,43.1762071 123.349286,43.3997101 C123.349286,43.9128225 125.671857,50.7910473 125.970429,51.161716 C126.093786,51.3143905 126.034071,52.1108166 125.835286,52.9639053 C125.640429,53.8051893 125.532786,54.6252249 125.594071,54.7873432 C125.656143,54.9486746 125.595643,55.8662959 125.459714,56.8248402 C125.249929,58.3090888 125.282929,58.7151716 125.683643,59.5533077 C126.324,60.8935385 126.590357,63.8817101 126.200643,65.3628107 C126.031714,66.0081361 125.839214,67.1232899 125.775571,67.8402308 C125.710357,68.5571716 125.381929,69.7305621 125.043286,70.4482899 C124.468929,71.6688994 124.0745,73.4207219 124.102786,74.6208698 C124.109071,74.9081183 124.128714,75.6549645 124.146,76.2806154 C124.175071,77.3713728 123.433357,80.2289053 122.669643,81.9626272 C122.470857,82.415929 122.308214,82.9581598 122.308214,83.169858 C122.308214,83.3815562 122.131429,83.701071 121.916929,83.879716 C121.702429,84.0583609 121.527214,84.2897337 121.527214,84.3951893 C121.527214,84.499858 120.890786,85.7472249 120.1145,87.1669408 C119.337429,88.5858698 118.405571,90.6280888 118.044929,91.7038935 C117.390429,93.6548225 117.094214,94.295426 115.930571,96.2676036 C115.592714,96.8413136 114.997929,97.9430888 114.610571,98.7143314 C113.692071,100.543278 111.6445,102.905012 106.649714,107.899201 C103.043286,111.505154 100.569071,113.611905 99.9420714,113.611905 C99.8289286,113.611905 99.0432143,114.058124 98.1977857,114.60429 C96.4904286,115.705278 92.3237857,117.779763 91.7934286,117.793142 C91.6056429,117.797864 91.2245714,117.973361 90.9464286,118.184272 C90.6682857,118.394396 90.2298571,118.566746 89.9705714,118.566746 C89.7112857,118.566746 89.4991429,118.683219 89.4991429,118.824876 C89.4991429,119.325396 83.4365714,121.600562 81.037,122.001136 C80.1774286,122.144367 79.2400714,122.410367 78.9532857,122.592947 C78.6672857,122.775527 78.023,123.002964 77.5217143,123.099763 C76.2795,123.338219 75.9542143,123.405899 75.0482857,123.608941 C74.6185,123.704953 73.1657143,123.896189 71.8221429,124.032337 C69.8311429,124.233805 69.2418571,124.210195 68.6447143,123.901698 C68.2424286,123.693148 67.5557143,123.52316 67.1188571,123.52316 C66.682,123.52316 66.3252857,123.417704 66.3252857,123.291 C66.3252857,123.163509 66.1783571,123.072219 65.9992143,123.087959 C65.8200714,123.105272 64.7947143,122.973846 63.7206429,122.798349 C62.6465714,122.622065 61.0067857,122.354491 60.0757143,122.203391 C59.1438571,122.05229 57.6376429,121.701296 56.7277857,121.421917 C55.8179286,121.142538 54.6778571,120.914314 54.1946429,120.914314 C53.1582857,120.914314 51.1806429,120.185568 50.8836429,119.693704 C50.7689286,119.504828 50.5057143,119.349793 50.2982857,119.349793 C50.0908571,119.349793 49.9203571,119.253781 49.9203571,119.135734 C49.9203571,119.017686 49.3153571,118.647018 48.576,118.31255 C47.0847143,117.63732 44.4148571,115.946095 43.4107143,115.040278 C43.0532143,114.716828 42.328,114.233621 41.8,113.966834 C40.7581429,113.439556 38.5086429,111.656254 35.2652143,108.786917 C32.5057857,106.344911 32.5702143,106.38426 31.9620714,106.76516 C31.5401429,107.029586 31.2824286,107.005976 30.5375714,106.632947 C29.4917857,106.110391 29.1295714,105.52645 29.8508571,105.52645 C30.1172143,105.52645 30.4095,105.334426 30.4990714,105.099118 C30.6947143,104.588367 30.0064286,103.44016 29.5067143,103.44016 C29.3126429,103.44016 28.9975714,103.252071 28.8066429,103.022272 C28.6165,102.791686 28.1882857,102.499716 27.8567143,102.373799 C27.5251429,102.247095 27.1747143,101.937024 27.0772857,101.683615 C26.796,100.950935 25.4280714,99.0070888 25.1931429,99.0070888 C25.0752857,99.0070888 24.9063571,99.1943905 24.8191429,99.4249763 C24.7295714,99.6587101 24.4915,99.7791183 24.2777857,99.6972722 C24.0695714,99.617 23.8291429,99.663432 23.7450714,99.8003669 C23.4213571,100.325284 22.8721429,100.044331 22.9216429,99.3793314 C22.9609286,98.8473314 22.7558571,98.5844793 21.9285,98.109142 C21.1577143,97.665284 20.9039286,97.3615089 20.9510714,96.9428343 C21.043,96.1314556 20.2690714,95.0816213 19.272,94.6645207 C18.4014286,94.3001479 18.1704286,93.9153136 18.711,93.7343077 C18.9286429,93.6619053 18.9184286,93.4667337 18.6740714,93.0079231 C18.4297143,92.5491124 18.4195,92.3539408 18.6371429,92.2815385 C18.8005714,92.2264497 18.9349286,92.0155385 18.9349286,91.812497 C18.9349286,91.5551538 18.6175,91.4426154 17.8922857,91.4426154 C17.3202857,91.4426154 16.8504286,91.325355 16.8504286,91.1829112 C16.8504286,91.0388935 16.9690714,90.9216331 17.1112857,90.9216331 C17.5536429,90.9216331 17.402,90.3581538 16.7215714,89.464142 C16.3625,88.9935266 16.0670714,88.5134675 16.0639286,88.3962071 C16.0592143,88.2789467 15.6789286,87.5919112 15.2169286,86.8694615 C14.4162857,85.6157988 14.3479286,85.5701538 13.7272143,85.8873077 C12.7057857,86.4082899 12.4983571,86.3067692 12.0206429,85.0531065 C11.7747143,84.4077811 11.4887143,83.878929 11.3857857,83.878929 C11.2820714,83.878929 11.0895714,83.4980296 10.9583571,83.0313491 C10.8255714,82.5623077 10.461,82.0696568 10.1396429,81.927213 C9.41992857,81.6069112 9.39635714,81.1166213 10.0815,80.7498876 C10.3675,80.596426 10.6016429,80.5476331 10.6016429,80.642858 C10.6016429,80.7365089 10.7768571,80.6688284 10.9897857,80.4917574 C11.5185714,80.0518343 11.2262857,79.6780178 10.4232857,79.7653728 C9.45371429,79.8708284 9.04592857,79.1168994 9.68707143,78.4062544 C10.318,77.7082012 11.2247143,77.8128698 11.3362857,78.5982781 C11.4879286,79.665426 12.1636429,79.2876746 12.1636429,78.1371065 C12.1636429,77.1486568 12.2021429,77.097503 12.8157857,77.2525385 C13.3485,77.3863254 13.4663571,77.3202189 13.4663571,76.8905266 C13.4663571,76.6017041 13.2432143,75.9146686 12.9729286,75.3629941 C12.2257143,73.8449053 11.1414286,68.9774201 11.4266429,68.4241716 C11.5578571,68.1715503 11.5900714,67.1154201 11.4997143,66.0766036 C11.3708571,64.6096686 11.4258571,64.0139231 11.7472143,63.4055858 C11.9750714,62.9758935 12.1620714,62.2321953 12.1628571,61.7529231 C12.1636429,61.1689822 12.3553571,60.7274852 12.7419286,60.4134793 C13.2141429,60.0302189 13.2605,59.8743964 12.9980714,59.5572426 C12.8212857,59.3439704 12.7497857,58.9780237 12.8393571,58.7450769 C13.1159286,58.0210533 11.8210714,58.2351124 11.0715,59.0378343 C10.5505714,59.5965917 10.3345,60.2183077 10.0995714,61.8418521 C9.73028571,64.3853787 9.73264286,65.5335858 10.1105714,66.4630118 C10.3125,66.9611716 10.318,67.4010947 10.1302143,67.9441124 C9.98171429,68.3698698 9.91885714,68.9427929 9.99114286,69.2174497 C10.0634286,69.4913195 9.93614286,70.1594675 9.71064286,70.7009112 C9.21328571,71.8955503 9.21328571,71.8821716 9.6635,71.8821716 C9.86228571,71.8821716 10.0893571,72.0482249 10.1671429,72.2520533 C10.2449286,72.4543077 10.6236429,72.7769704 11.0102143,72.9689941 C11.4219286,73.1728225 11.8760714,73.7363018 12.111,74.3320473 C12.4842143,75.2811479 12.4787143,75.3708639 12.0277143,75.7013964 C11.5594286,76.0437337 11.5602143,76.0555385 12.0489286,76.0634083 C12.5195714,76.0712781 12.5227143,76.0909527 12.0968571,76.3380651 C11.4156429,76.7354911 11.1909286,76.4624083 10.8389286,74.8128935 C10.6629286,73.9897101 10.4303571,73.2153195 10.3219286,73.0901893 C10.0712857,72.8037278 9.7075,75.1245385 9.91807143,75.6707041 C10.0060714,75.9028639 9.90785714,76.1381716 9.68628571,76.2231657 C9.47414286,76.3050118 9.3005,76.6623018 9.3005,77.0180178 C9.3005,77.4178047 9.17635714,77.6224201 8.97442857,77.5563136 C8.5525,77.4170178 8.38828571,76.3160296 8.78978571,76.3160296 C8.99328571,76.3160296 9.0365,76.077574 8.91707143,75.5990888 C8.68685714,74.6798935 8.70728571,74.6924852 7.92628571,74.9899645 C6.74221429,75.4409053 6.79407143,76.4891657 8.16042857,79.6158462 C8.35764286,80.067574 8.51871429,80.6766982 8.51871429,80.9694556 C8.51871429,81.262213 8.62714286,81.5675621 8.75914286,81.6501953 C8.89192857,81.7320414 9.08128571,82.1790473 9.18107143,82.6433669 C9.28085714,83.1084734 9.58178571,83.9505444 9.85207143,84.5155976 C10.1207857,85.0806509 10.3423571,85.7259763 10.3431429,85.9502663 C10.3439286,86.1737692 10.5199286,86.6931775 10.7336429,87.1047692 C10.9481429,87.514787 11.1233571,88.222284 11.1233571,88.6763728 C11.1233571,89.1296746 11.2812857,89.732503 11.4745714,90.0158166 C11.6686429,90.2983432 11.9012143,90.8421479 11.9947143,91.2230473 C12.0874286,91.6039467 12.243,92.1327988 12.342,92.3972249 C12.5022857,92.8253432 12.4724286,92.8371479 12.0709286,92.5097633 C11.8234286,92.3075089 11.6796429,91.9848462 11.7535,91.7928225 C11.8273571,91.6015858 11.5979286,91.2545266 11.2451429,91.0231538 C10.8907857,90.7902071 10.6016429,90.5021716 10.6016429,90.3817633 C10.6016429,90.2597811 10.2708571,89.599503 9.867,88.9124675 C9.46235714,88.223858 8.9155,87.0740769 8.6515,86.3571361 C8.38671429,85.6394083 8.01428571,84.8681657 7.82414286,84.6415148 C7.63321429,84.4148639 7.4745,84.0622959 7.47135714,83.8592544 C7.46192857,83.3437811 6.36742857,80.2375621 5.91642857,79.445858 C5.71292857,79.0869941 5.57464286,78.6510059 5.61,78.4762959 C5.64535714,78.3023728 5.29492857,77.3642899 4.83214286,76.3900059 C4.37014286,75.4180828 4.02128571,74.4666213 4.05821429,74.2777456 C4.09357143,74.0896568 3.92935714,73.3514675 3.69364286,72.6376746 C3.45635714,71.9254556 3.32121429,71.1912012 3.39114286,71.0078343 C3.46185714,70.8236805 3.432,70.1964556 3.32592857,69.6148757 C3.18764286,68.8570118 3.27328571,68.096 3.62764286,66.9391361 C4.02207143,65.6547811 4.05821429,65.2447633 3.806,64.9402012 C3.56635714,64.6505917 3.56321429,64.4845385 3.79107143,64.2555266 C3.95764286,64.0894734 4.092,63.3796154 4.092,62.6784142 C4.092,61.7969941 4.25307143,61.1965266 4.61371429,60.7392899 C4.94528571,60.3174675 5.13385714,59.6807988 5.13385714,58.9898284 C5.13385714,57.7180651 5.48271429,57.277355 6.48764286,57.277355 C7.28121429,57.277355 7.46428571,56.7642426 6.853,56.2558521 C6.48921429,55.9544379 6.5615,55.0706568 6.996,54.5111124 C7.11935714,54.351355 7.38492857,53.7060296 7.58685714,53.0756568 C8.25471429,50.9925148 9.16142857,49.0691302 9.75621429,48.4741716 C10.2787143,47.9516154 10.4672857,47.2480533 10.4028571,46.0730888 C10.3910714,45.8637515 10.6063571,45.5347929 10.8829286,45.3411953 C11.1579286,45.1483846 11.3865714,44.7910947 11.3920714,44.5479172 C11.4022857,43.9647633 12.6154286,42.5977751 12.9422857,42.8000296 C13.0986429,42.8968284 13.1418571,42.6741124 13.0515,42.2278935 C12.9399286,41.6636272 13.0601429,41.3519822 13.5763571,40.8648402 C13.9456429,40.5177811 14.2473571,40.1573432 14.2473571,40.0629053 C14.2473571,39.722142 16.731,37.195142 17.0665,37.195142 C17.314,37.195142 17.2904286,37.0755207 16.9761429,36.7623018 C16.5832857,36.3688107 16.5817143,36.307426 16.9580714,36.0973018 C17.3745,35.863568 17.5465714,34.847574 17.1702143,34.847574 C17.0586429,34.847574 16.7074286,35.0301538 16.3884286,35.2544438 C15.7912857,35.6731183 15.5987857,36.4128817 16.0859286,36.4128817 C16.2367857,36.4128817 16.2847143,36.5380118 16.1888571,36.6914734 C16.0945714,36.8441479 15.8337143,36.8992367 15.6105714,36.8134556 C15.3662143,36.7198047 14.9120714,36.9385858 14.4681429,37.3643432 C13.5025,38.2906213 13.255,37.9884201 13.9770714,36.7623018 C14.5105714,35.8580592 14.5192143,35.7620473 14.1137857,35.464568 C13.7044286,35.1663018 13.7083571,35.1001953 14.157,34.4824142 C14.421,34.1188284 14.8437143,33.8174142 15.0943571,33.8126923 C15.3968571,33.8079704 15.5492857,33.5986331 15.5492857,33.1901893 C15.5492857,32.7242959 15.3457857,32.5149586 14.7030714,32.3213609 C14.2371429,32.1812781 13.8867143,31.9294438 13.9220714,31.7618166 C13.9582143,31.5941893 14.0163571,31.3250414 14.0525,31.1637101 C14.2214286,30.4019112 13.3547857,30.7544793 12.2705,31.8869467 C11.1917143,33.0154793 10.7085,33.7591775 9.2565,36.528568 C9.01764286,36.9842308 8.63657143,37.5115089 8.41028571,37.6988107 C8.18321429,37.8876864 7.99857143,38.3158047 7.99857143,38.6494852 C7.99857143,39.4679467 7.48392857,40.5760178 6.73592857,41.3677219 C6.39728571,41.7265858 5.88892857,42.5481953 5.60685714,43.1935207 C5.05135714,44.465284 4.20985714,46.3194142 3.71014286,47.3786923 C3.53728571,47.7430651 3.47678571,48.2679822 3.57342857,48.545787 C3.696,48.8952071 3.5805,49.1856036 3.19707143,49.4870178 C2.6235,49.9387456 1.80478571,52.580645 1.63035714,54.5386568 C1.42292857,56.879929 1.13928571,58.7191065 0.967214286,58.8426627 C0.866642857,58.9134911 0.679642857,60.380426 0.551571429,62.1023432 L0.550785714,62.1023432 C0.276571429,65.7688935 0.285214286,66.7156331 0.596357143,67.2137929 C0.721285714,67.4144734 0.805357143,68.5351361 0.781785714,69.7045917 C0.744071429,71.510716 0.814,71.8971243 1.24378571,72.2874675 C1.78042857,72.7746095 1.91164286,73.7008876 1.50228571,74.1124793 C1.287,74.3288994 1.56985714,75.6384379 2.20392857,77.359568 C2.28328571,77.5752012 2.39014286,77.9852189 2.442,78.2716805 C2.59757143,79.135787 3.35185714,81.3542899 3.74942857,82.1184497 C3.95371429,82.5135148 4.04957143,82.8361775 3.96235714,82.8361775 C3.87435714,82.8361775 3.98514286,83.0974556 4.2075,83.4161834 C4.43142857,83.7349112 4.61371429,84.3857456 4.61371429,84.8634438 C4.61371429,85.8322189 5.25642857,87.2700355 5.68935714,87.2700355 C5.84414286,87.2700355 5.90778571,87.4337278 5.83078571,87.6344083 C5.75378571,87.8343018 5.918,88.4206036 6.19457143,88.9376509 C6.47035714,89.4539112 6.69585714,90.0992367 6.69585714,90.3723195 C6.69585714,91.2978107 8.71278571,95.2996154 9.40971429,95.7568521 C9.823,96.0283609 10.0815,96.4383787 10.0815,96.824787 C10.0815,97.4307633 11.2773571,99.528071 11.6215,99.528071 C11.7134286,99.528071 11.9373571,99.8507337 12.1172857,100.245012 C13.2699286,102.772799 14.7785,104.608041 16.3617143,105.41155 C17.0602143,105.767266 17.6322143,106.130065 17.6322143,106.219781 C17.6322143,106.30871 17.4271429,106.541657 17.1772857,106.736828 C16.7632143,107.058704 16.7592857,107.120876 17.1348571,107.417568 C17.3619286,107.597 17.6856429,108.004657 17.8553571,108.323385 C18.1036429,108.790065 18.3142143,108.871911 18.9388571,108.746781 C19.7583571,108.583089 20.0357143,108.999402 19.2963571,109.283503 C18.5515,109.569178 19.4142143,110.293988 20.2902857,110.119278 C20.9738571,109.981556 21.0155,110.020905 20.8897857,110.683544 C20.8143571,111.074675 20.823,111.248598 20.9070714,111.068379 C21.0752143,110.711876 21.7988571,110.616651 21.7988571,110.951118 C21.7988571,111.066018 21.6731429,111.286373 21.5199286,111.439834 C21.1726429,111.786893 22.2954286,113.090136 22.9412857,113.090136 C23.1793571,113.090136 23.4810714,113.371876 23.6115,113.716574 C23.7568571,114.09826 24.2047143,114.460272 24.7602143,114.643639 C25.3400714,114.834876 25.8617857,115.270864 26.1996429,115.843 C26.5084286,116.368704 26.9342857,116.741734 27.2257857,116.741734 C27.5,116.741734 27.8700714,116.917231 28.0476429,117.132077 C28.226,117.34771 28.7092143,117.523207 29.1217143,117.523207 C29.5334286,117.523207 29.8712857,117.641254 29.8712857,117.784485 C29.8712857,117.927716 29.6261429,118.045763 29.3283571,118.045763 C28.5473571,118.045763 28.8325714,118.616325 29.8862143,119.16013 C30.3788571,119.415112 30.7520714,119.740923 30.7151429,119.884941 C30.6774286,120.028959 30.7945,120.187929 30.9752143,120.23987 C31.1551429,120.291024 31.812,120.47203 32.4350714,120.642018 C33.3606429,120.893852 33.5429286,121.042592 33.4360714,121.454183 C33.2537857,122.150663 33.5712143,122.31042 35.3987857,122.445781 C35.6462857,122.463882 35.9197143,122.756639 36.0045714,123.097402 C36.2127857,123.928456 37.2821429,124.67058 38.8284286,125.055414 C39.5308571,125.231698 40.4257857,125.541769 40.8194286,125.746385 C41.2130714,125.949426 42.0915,126.242183 42.7719286,126.394071 C43.4523571,126.546746 44.3347143,126.904036 44.7338571,127.188923 C45.2272857,127.540704 45.9847143,127.732728 47.1035714,127.787817 C48.8117143,127.875959 50.3776429,128.36074 50.8388571,128.949402 C50.9865714,129.135917 51.7471429,129.389325 52.5312857,129.512095 C53.3146429,129.634077 54.4256429,129.90716 54.9984286,130.117284 C55.5712143,130.328195 57.2699286,130.581604 58.7737857,130.680763 C60.2776429,130.78071 62.3275714,130.975095 63.3309286,131.115178 C64.3335,131.256047 65.7234286,131.376456 66.4211429,131.383538 C67.4417857,131.395343 67.7144286,131.494503 67.8173571,131.893503 C67.98,132.510497 68.0067143,132.50971 68.8937857,131.853367 C69.4964286,131.405574 69.7266429,131.366225 70.2632857,131.609402 C70.7417857,131.828183 71.3719286,131.827396 72.7170714,131.60468 C73.7125714,131.440201 75.8740714,131.250538 77.5217143,131.182858 C79.1685714,131.115178 81.0181429,130.890101 81.6317857,130.682337 C82.2454286,130.474574 82.8708571,130.303012 83.0217143,130.303012 C83.1725714,130.303012 83.4955,130.05826 83.7375,129.756846 C83.9975714,129.436544 84.5499286,129.179988 85.0818571,129.134343 C87.7752857,128.905331 90.937,128.006598 93.5353571,126.73326 C96.173,125.440249 96.9068571,124.872834 97.603,123.586118 C98.1262857,122.618917 98.6275714,122.212047 100.826,120.97255 C102.257571,120.165107 104.367214,118.787888 105.512786,117.912763 C106.658357,117.036065 108.0035,116.091686 108.502429,115.813095 C109.001357,115.53529 109.566286,115.159899 109.758,114.981254 C109.9505,114.801036 110.187,114.654657 110.286,114.654657 C110.385,114.654657 110.757429,114.388657 111.114143,114.062059 C111.470071,113.737036 112.126929,113.238089 112.572429,112.953988 C113.487,112.373195 115.537714,110.080716 115.537714,109.64158 C115.537714,109.206379 117.118571,106.771456 117.784857,106.178071 C118.107,105.892396 118.613786,105.188047 118.908429,104.614337 C119.204643,104.040627 120.206429,102.756272 121.1375,101.76074 C122.067,100.76442 122.828357,99.792497 122.828357,99.6004734 C122.828357,99.4084497 122.998857,99.1857337 123.206286,99.1062485 C123.412143,99.0259763 123.896929,98.5490651 124.279571,98.0461834 C124.812286,97.3473432 124.971786,96.8515444 124.952929,95.9512367 C124.940357,95.3035503 125.101429,94.4402308 125.311214,94.0341479 C125.759857,93.1645325 125.815643,91.7881006 125.407857,91.6519527 C124.904214,91.4843254 126.126786,88.3670888 127.251929,86.9513077 C127.831786,86.2209882 128.381,85.3198935 128.470571,84.9476509 C128.560143,84.5754083 128.8595,83.9466095 129.135286,83.5507574 C129.800786,82.5977219 130.037286,80.6357751 130.239214,74.3651006 C130.360214,70.6292959 130.505571,69.0411657 130.7515,68.7578521 C131.285,68.1432189 131.459429,65.4926627 131.156143,62.6241124 L131.156143,62.6241124 Z" id="Fill-179"></path>
                            <path d="M85.2020714,1.46457396 C85.5611429,1.46457396 85.8542143,1.34731361 85.8542143,1.20408284 C85.8542143,1.06085207 85.5611429,0.943591716 85.2020714,0.943591716 C84.8445714,0.943591716 84.5515,1.06085207 84.5515,1.20408284 C84.5515,1.34731361 84.8445714,1.46457396 85.2020714,1.46457396" id="Fill-180"></path>
                            <path d="M38.2737143,27.7033491 C38.3601429,27.7899172 38.5840714,27.7993609 38.7734286,27.7238107 C38.9808571,27.6411775 38.918,27.5782189 38.6155,27.5656272 C38.3412857,27.5546095 38.1872857,27.6159941 38.2737143,27.7033491" id="Fill-181"></path>
                            <path d="M37.3292857,28.7405917 C36.8012857,28.9436331 36.7651429,29.3709645 37.2766429,29.3709645 C37.6663571,29.3709645 38.0835714,28.9027101 37.8761429,28.6957337 C37.8101429,28.6296272 37.565,28.6508757 37.3292857,28.7405917" id="Fill-182"></path>
                            <path d="M33.6812143,31.0692722 C34.0921429,30.856787 34.6382143,30.7489704 34.8951429,30.8300296 C35.4294286,31.0000178 36.1200714,30.5262544 36.1200714,29.9911065 C36.1200714,29.5094734 34.8440714,29.5228521 34.6578571,30.0068462 C34.5792857,30.2130355 34.3490714,30.3177041 34.1463571,30.2397929 C33.9436429,30.1618817 33.0165,30.4664438 32.0846429,30.9165976 C31.1527857,31.3659645 30.3914286,31.8475976 30.3914286,31.9876805 C30.3914286,32.3764497 31.0702857,32.2867337 31.4332857,31.8483846 C31.6108571,31.6335385 32.0225714,31.4580414 32.3462857,31.4580414 C32.6707857,31.4580414 33.2718571,31.2825444 33.6812143,31.0692722" id="Fill-183"></path>
                            <path d="M42.1999286,25.6831657 C41.9351429,25.8248225 41.5132143,26.0050414 41.2633571,26.0837396 C41.0119286,26.1616509 40.8076429,26.3387219 40.8076429,26.4788047 C40.8076429,27.045432 41.3293571,26.9895562 42.0977857,26.3410828 C42.9557857,25.6178462 43.0131429,25.2432426 42.1999286,25.6831657" id="Fill-184"></path>
                            <path d="M33.9758571,25.3109231 C33.8878571,25.2219941 33.5727857,25.227503 33.2757857,25.3227278 C32.6833571,25.5108166 32.5757143,25.8515799 33.0196429,26.1262367 C33.3386429,26.3229822 34.2280714,25.5635444 33.9758571,25.3109231" id="Fill-185"></path>
                            <path d="M31.8615,26.6543018 C31.6257857,26.7448047 31.4332857,26.9242367 31.4332857,27.0533018 C31.4332857,27.1831538 31.6619286,27.1461657 31.9416429,26.9706686 C32.5325,26.600787 32.4845714,26.4150592 31.8615,26.6543018" id="Fill-186"></path>
                            <path d="M102.502714,21.6868698 C102.144429,21.9087988 102.204143,22.5139882 102.600143,22.6658757 C102.787929,22.7382781 103.264071,22.7359172 103.656929,22.6603669 L104.370357,22.5242189 L103.558714,22.0292071 C103.112429,21.7576982 102.637857,21.6034497 102.502714,21.6868698" id="Fill-187"></path>
                            <path d="M117.81,26.9210888 C117.873643,26.8565562 117.681143,26.6739763 117.382571,26.5142189 C117.084786,26.3536746 116.840429,26.3316391 116.840429,26.4646391 C116.840429,26.733 117.6285,27.1036686 117.81,26.9210888" id="Fill-188"></path>
                            <path d="M67.9116429,11.9825917 C67.6083571,12.2312781 67.6963571,12.3036805 68.3885714,12.3721479 C68.8568571,12.4177929 69.4327857,12.3721479 69.6692857,12.2698402 C69.9906429,12.1321183 69.8696429,12.0329586 69.1915714,11.880284 C68.5975714,11.747284 68.1536429,11.7819112 67.9116429,11.9825917" id="Fill-189"></path>
                            <path d="M103.715071,11.2451893 C105.16,11.9629172 106.550714,12.7601302 106.806071,13.0182604 C107.279071,13.4983195 108.152786,13.5313728 108.071071,13.0670533 C108.046714,12.9253964 107.668,12.7058284 107.231143,12.5783373 C106.794286,12.4508462 106.365286,12.1211006 106.278071,11.8448698 C106.190071,11.5686391 105.806643,11.2082012 105.425571,11.0413609 C105.043714,10.8760947 104.217143,10.3543254 103.587786,9.88449704 C102.904214,9.37295858 102.136571,9.02826036 101.680857,9.02826036 C100.180143,9.02826036 100.960357,9.87820118 103.715071,11.2451893" id="Fill-190"></path>
                            <path d="M32.7344286,18.8151716 C32.7344286,18.6034734 33.1155,18.2280828 33.5806429,17.9809704 C34.276,17.6110888 34.3396429,17.511929 33.9373571,17.4269349 C33.3834286,17.3096746 32.2433571,17.8298698 31.7664286,18.4169586 C31.3052143,18.9859467 31.3515714,19.5470651 31.845,19.3581893 C32.0712857,19.2716213 32.3643571,19.1992189 32.4955714,19.1992189 C32.6275714,19.1992189 32.7344286,19.0268698 32.7344286,18.8151716" id="Fill-191"></path>
                            <path d="M94.7068571,9.15889941 C94.5285,8.94326627 94.2794286,8.76776923 94.1537143,8.76776923 C93.7671429,8.76776923 93.9015,9.22343195 94.3367857,9.39105917 C94.9747857,9.63659763 95.0588571,9.58308284 94.7068571,9.15889941" id="Fill-192"></path>
                            <path d="M76.7399286,17.8723669 C76.7399286,18.1808639 78.7120714,18.5169053 79.1017857,18.2753018 C79.574,17.9833314 78.8346429,17.643355 77.7165714,17.6386331 C77.1799286,17.6370592 76.7399286,17.7417278 76.7399286,17.8723669" id="Fill-193"></path>
                            <path d="M93.9392143,18.8002189 C94.5764286,18.9670592 95.3762857,19.196858 95.7157143,19.3101834 C96.1604286,19.4589231 96.2814286,19.4305917 96.1462857,19.2118107 C95.9270714,18.8553077 95.0549286,18.4980178 93.6186429,18.174568 C92.1682143,17.8487574 92.4557857,18.4122367 93.9392143,18.8002189" id="Fill-194"></path>
                            <path d="M48.2962857,16.9177574 C48.6286429,16.5864379 49.2422857,16.445568 50.5363571,16.404645 C51.5169286,16.3739527 52.4535,16.2401657 52.6169286,16.1071657 C52.7811429,15.9757396 53.7648571,15.783716 54.802,15.6814083 C55.8407143,15.5783136 56.6900714,15.4138343 56.6900714,15.3138876 C56.6900714,15.2147278 57.1300714,15.1100592 57.6667143,15.0817278 C59.609,14.9778462 61.1167857,14.7118462 61.1167857,14.4726036 C61.1167857,13.875284 60.2226429,13.9327337 53.9565714,14.9329882 C53.383,15.0242781 52.7732857,15.2107929 52.6004286,15.3461538 C52.4283571,15.4823018 52.1714286,15.5216509 52.0315714,15.4350828 C51.8901429,15.3477278 51.0549286,15.2139408 50.1749286,15.1360296 C48.9782857,15.030574 48.4188571,15.0974675 47.9552857,15.4020296 C47.6142857,15.6255325 47.1711429,15.8088994 46.9715714,15.8088994 C46.7712143,15.8088994 46.1984286,16.0874911 45.6963571,16.4282544 C44.8477857,17.0051124 42.922,17.6354852 40.3951429,18.1627633 C39.8105714,18.2855325 38.8032857,18.6680059 38.1558571,19.0119172 C37.1430714,19.551 36.9427143,19.5848402 36.7337143,19.2527337 C36.5215714,18.9166923 36.432,18.9245621 36.0422857,19.3149053 C35.5150714,19.8429704 35.684,20.2891893 36.3227857,20.0593905 C36.6535714,19.9413432 36.6056429,20.0806391 36.1397143,20.5929645 C35.7924286,20.9738639 35.2652143,21.2823609 34.9682143,21.2776391 C34.4386429,21.2697692 34.4378571,21.2618994 34.9289286,20.8888698 C35.6557143,20.3395562 35.2636429,20.1412367 34.166,20.5032485 C33.4832143,20.7291124 33.2624286,20.9282189 33.374,21.2186154 C33.4651429,21.456284 33.3135,21.7702899 33.0015714,21.989858 C32.2307857,22.5305148 32.3360714,22.9468284 33.1901429,22.7296213 C33.5837857,22.6296746 34.3726429,22.4840828 34.9430714,22.4061716 C35.8592143,22.2802544 37.0472143,21.7325148 37.422,21.2658343 C37.8195714,20.7700355 40.0266429,19.6171065 41.4173571,19.1803314 C42.2989286,18.9033136 43.2551429,18.5641243 43.5411429,18.4279763 C44.9978571,17.733858 46.1654286,17.3742071 46.9582143,17.3742071 C47.4477143,17.3742071 48.0409286,17.1711657 48.2962857,16.9177574" id="Fill-195"></path>
                            <path d="M101.406643,21.9654615 C101.470286,21.902503 101.277,21.7191361 100.979214,21.5593787 C100.679857,21.3988343 100.4355,21.3760118 100.4355,21.5105858 C100.4355,21.7773728 101.224357,22.1480414 101.406643,21.9654615" id="Fill-196"></path>
                            <path d="M27.5589286,30.458574 C26.5288571,31.0102485 26.3049286,31.4407278 26.9366429,31.6516391 C27.2862857,31.7681124 29.0250714,30.2626154 28.8003571,30.0375385 C28.7139286,29.9509704 28.1552857,30.1398462 27.5589286,30.458574" id="Fill-197"></path>
                            <path d="M39.4137857,26.9407633 C39.3163571,27.0391361 39.3352143,27.219355 39.457,27.3405503 C39.7155,27.5994675 40.546,27.3366154 40.546,26.9958521 C40.546,26.7235562 39.6738571,26.6802722 39.4137857,26.9407633" id="Fill-198"></path>
                            <path d="M22.2443571,36.7733195 C22.3048571,36.5883787 22.0958571,36.5277811 21.6786429,36.6080533 C21.3148571,36.6773077 21.0178571,36.8465089 21.0178571,36.9826568 C21.0178571,37.3242071 22.1257143,37.1345444 22.2443571,36.7733195" id="Fill-199"></path>
                            <path d="M25.0917857,32.941503 C24.9684286,33.1579231 24.5889286,33.5781716 24.2447857,33.8772249 C23.9022143,34.1754911 23.6209286,34.5910178 23.6209286,34.800355 C23.6209286,35.0207101 24.1646429,34.6712899 24.9181429,33.9653669 C25.6307857,33.2972189 26.1917857,32.6644852 26.1627143,32.5606036 C26.0770714,32.2521065 25.3322143,32.5173195 25.0917857,32.941503" id="Fill-200"></path>
                            <path d="M45.4936429,23.8864852 C45.4936429,24.0249941 45.6696429,24.0706391 45.8841429,23.9887929 C46.0994286,23.9053728 46.2754286,23.7920473 46.2754286,23.7353846 C46.2754286,23.6795089 46.0994286,23.6338639 45.8841429,23.6338639 C45.6696429,23.6338639 45.4936429,23.7464024 45.4936429,23.8864852" id="Fill-201"></path>
                            <path d="M123.805,31.4541065 C123.625857,31.4509586 123.3045,31.3360592 123.089214,31.1967633 C122.784357,30.9992308 122.855857,30.942568 123.4145,30.9402071 C123.808143,30.9378462 124.130286,31.0535325 124.130286,31.1967633 C124.130286,31.3399941 123.984143,31.4564675 123.805,31.4541065 Z M115.535357,16.7422604 C116.035857,16.979142 116.776786,17.4529053 117.183,17.7952426 C117.588429,18.1375799 118.126643,18.4169586 118.378857,18.4169586 C118.876214,18.4169586 120.639357,20.435568 120.374571,20.7007811 C120.285,20.791284 119.825357,20.7243905 119.353929,20.5544024 C118.881714,20.3820533 118.361571,20.2427574 118.196571,20.2427574 C117.6505,20.2427574 118.168286,20.9722899 118.941429,21.2941657 C119.823,21.6593254 119.8615,21.7647811 119.273786,22.1960473 C118.710429,22.608426 118.980714,23.0058521 119.958929,23.2018107 C120.606357,23.3316627 120.746214,23.4874852 120.750143,24.0832308 C120.7525,24.5884734 120.820857,24.7002249 120.977214,24.4531124 C121.121,24.2256746 121.260071,24.1957692 121.3685,24.3696923 C121.459643,24.518432 121.416429,24.7143905 121.271071,24.8041065 C120.791,25.1015858 120.9945,25.4588757 121.641143,25.4588757 C121.991571,25.4588757 122.342786,25.5651183 122.422143,25.6933964 C122.500714,25.8224615 123.141071,26.066426 123.841929,26.2348402 C125.333214,26.5937041 126.589571,27.6773787 125.8455,27.9638402 C125.599571,28.0582781 125.143071,28.018142 124.829571,27.8756982 C124.469714,27.7112189 124.021857,27.7049231 123.609357,27.8583846 C123.251857,27.9921716 122.692429,28.0504083 122.366357,27.9882367 C122.002571,27.9197692 121.677286,28.0386036 121.524857,28.2975207 C121.352786,28.5887041 121.213714,28.6288402 121.076214,28.4289467 C120.965429,28.2684024 120.6315,28.061426 120.3345,27.9685621 C119.854429,27.8182485 119.805714,27.8890769 119.907857,28.5855562 C120.034357,29.4425799 119.584929,29.6818225 119.373571,28.8712308 C119.296571,28.5753254 118.631071,28.0897574 117.743214,27.6836746 C116.336786,27.0391361 115.537714,26.9706686 115.537714,27.4947988 C115.537714,27.7458462 116.6825,28.329 117.1775,28.329 C117.349571,28.329 117.725143,28.6862899 118.011143,29.1230651 C118.776429,30.2877988 122.522714,33.0949645 123.108857,32.941503 C123.825429,32.7542012 125.755929,33.7859349 125.574429,34.2596982 C125.477,34.5138935 125.549286,34.5981006 125.787357,34.5068107 C125.992429,34.4281124 126.387643,34.6956864 126.709,35.1301006 C127.265286,35.8840296 128.036857,36.1586864 128.036857,35.6030769 C128.036857,35.4441065 128.213643,35.3819349 128.429714,35.464568 C129.279071,35.7911657 130.060857,35.1678757 130.570786,33.7552426 C131.539571,31.0747811 131.265357,26.0388817 130.112714,25.3243018 C129.973643,25.2377337 129.858929,24.8733609 129.858929,24.5137101 C129.858929,24.0493905 129.7285,23.8746805 129.403214,23.9077337 C128.504357,23.9998107 128.333071,23.8809763 128.028214,22.9578462 C127.816071,22.3101598 127.496286,21.943426 126.992643,21.767929 C126.592714,21.6286331 126.206929,21.2862959 126.133857,21.0092781 C126.060786,20.7306864 125.803857,20.5032485 125.561857,20.5032485 C125.110071,20.5032485 123.684,19.6029408 123.219643,19.0252959 C122.779643,18.4783432 121.630929,18.1564675 121.299357,18.488574 C121.081714,18.706568 121.006286,18.6341657 121.006286,18.2084083 C121.006286,17.8928284 120.867214,17.6346982 120.696714,17.6346982 C120.527786,17.6346982 119.912571,17.4143432 119.330357,17.1467692 C117.790357,16.4353373 113.828786,15.0266391 113.3715,15.0266391 C113.274071,15.0266391 113.193929,15.1376036 113.193929,15.2737515 C113.193929,15.5247988 113.905786,15.9702308 115.535357,16.7422604 L115.535357,16.7422604 Z" id="Fill-202"></path>
                            <path d="M113.3715,15.0266391 L113.3715,15.0266391" id="Fill-203"></path>
                            <path d="M24.8592143,39.1397751 C25.1334286,39.2460178 25.7274286,38.8226213 26.664,37.8554201 C27.4308571,37.062142 28.1592143,36.4128817 28.2817857,36.4128817 C28.4043571,36.4128817 28.6581429,36.2279408 28.8451429,36.0020769 C29.0313571,35.777 29.6324286,35.3638343 30.1785,35.0844556 C32.1647857,34.0700355 30.8856429,33.6631657 28.6667857,34.6043964 C26.3072857,35.6038639 26.2012143,35.6778402 26.5367143,36.0839231 C26.9217143,36.5482426 26.543,36.8173905 25.201,37.0314497 C24.6455,37.1203787 23.7922143,37.5760414 23.1542143,38.1222071 L23.1542143,38.1229941 C22.5515714,38.6392544 22.0589286,39.1736154 22.0589286,39.3097633 C22.0589286,39.7890355 22.8006429,39.8370414 23.6209286,39.412071 C24.0774286,39.1759763 24.6345,39.0539941 24.8592143,39.1397751" id="Fill-204"></path>
                            <path d="M23.3679286,27.6805266 C23.2272857,27.5923846 22.5837857,28.0496213 21.9395,28.6949467 C21.2944286,29.3410592 20.5275714,29.9974024 20.2345,30.1547988 C19.9414286,30.3114083 19.2979286,30.9921479 18.8037143,31.6658047 C17.7045,33.1673669 17.5921429,33.8016746 18.535,33.1823195 C18.8877857,32.9509467 19.4071429,32.760497 19.6892143,32.760497 C19.9728571,32.760497 20.2753571,32.5283373 20.3665,32.2395148 C20.4702143,31.9121302 20.7609286,31.7185325 21.1467143,31.7185325 C21.5655,31.7185325 21.7886429,31.5477574 21.8452143,31.1857456 C21.8915714,30.8937751 21.9874286,30.678929 22.0589286,30.7088343 C22.1304286,30.7379527 22.4525714,30.6214793 22.7755,30.4491302 C23.6005,30.0068462 23.5541429,30.5774083 22.7095,31.2431953 C22.0023571,31.8011657 21.8632857,32.2395148 22.3952143,32.2395148 C22.858,32.2395148 26.2727143,29.082142 26.7260714,28.2345621 C26.9492143,27.8166746 27.3153571,27.5451657 27.6555714,27.5451657 C28.2613571,27.5451657 30.261,25.7036272 30.261,25.1464438 C30.261,24.959142 30.5163571,24.7702663 30.8282857,24.7261953 C31.5055714,24.6293964 32.0657857,24.0249941 31.8308571,23.6448817 C31.7381429,23.494568 31.3130714,23.3725858 30.8848571,23.3725858 C30.2971429,23.3725858 29.9993571,23.5598876 29.667,24.1406805 C29.4242143,24.5632899 29.0494286,24.9717337 28.8325714,25.048858 C27.8543571,25.3959172 25.949,26.7070296 25.3361429,27.4523018 C24.3524286,28.6508757 24.4632143,29.348142 25.4885714,28.417929 C25.7502143,28.1810473 25.9655,28.0984142 25.9655,28.2345621 C25.9655,28.6288402 25.3809286,29.1104734 24.9024286,29.1104734 C24.6627857,29.1104734 24.2817143,29.3748994 24.057,29.6967751 C23.7144286,30.189426 23.6468571,30.2106746 23.6350714,29.8274142 C23.6272143,29.5763669 23.4457143,29.3709645 23.2304286,29.3709645 C22.7275714,29.3709645 22.7283571,28.7382308 23.2327857,28.2329882 C23.4700714,27.9953195 23.5235,27.7765385 23.3679286,27.6805266" id="Fill-205"></path>
                        </g>
                    </g>
                </g>
            </g>
        </g>
    </g>
</svg>