<svg viewBox="0 0 500 500" xmlns="http://www.w3.org/2000/svg"><title>icon-twitter</title><path d="M445 141.435c-13.318 5.923-27.632 9.927-42.655 11.725 15.331-9.216 27.11-23.808 32.653-41.197a148.446 148.446 0 0 1-47.161 18.07c-13.547-14.473-32.85-23.514-54.21-23.514-47.94 0-83.18 44.854-72.346 91.431-61.724-3.104-116.45-32.75-153.079-77.8-19.455 33.461-10.091 77.251 22.984 99.415a73.789 73.789 0 0 1-33.64-9.315c-.805 34.5 23.852 66.76 59.568 73.955a74.221 74.221 0 0 1-33.537 1.275c9.448 29.582 36.878 51.111 69.377 51.711-31.224 24.534-70.55 35.492-109.954 30.836 32.866 21.127 71.905 33.456 113.846 33.456 137.887 0 215.79-116.771 211.095-221.502 14.512-10.499 27.102-23.613 37.059-38.546z" fill="currentColor" fill-rule="evenodd"/></svg>
