<svg viewBox="0 0 500 501" xmlns="http://www.w3.org/2000/svg"><title>icon-verified</title><path d="M249.142 431.74l-28.41 12.725c-12.355 5.534-26.898 1.637-34.83-9.333l-18.242-25.225a14.286 14.286 0 0 0-10.115-5.84l-30.966-3.184c-13.467-1.385-24.113-12.032-25.498-25.499l-3.185-30.966a14.286 14.286 0 0 0-5.84-10.114l-25.224-18.241c-10.97-7.933-14.867-22.476-9.333-34.832l12.724-28.41a14.286 14.286 0 0 0 0-11.679L57.5 212.732c-5.534-12.355-1.638-26.898 9.333-34.83l25.225-18.242a14.286 14.286 0 0 0 5.84-10.115l3.184-30.966c1.385-13.467 12.031-24.113 25.498-25.498l30.966-3.185a14.286 14.286 0 0 0 10.115-5.84L185.9 58.833c7.933-10.97 22.476-14.867 34.831-9.333l28.41 12.724a14.286 14.286 0 0 0 11.68 0l28.41-12.724c12.355-5.534 26.898-1.638 34.83 9.333l18.242 25.225a14.286 14.286 0 0 0 10.114 5.84l30.966 3.184c13.467 1.385 24.114 12.031 25.499 25.498l3.185 30.966a14.286 14.286 0 0 0 5.84 10.115l25.224 18.241c10.97 7.933 14.867 22.476 9.333 34.831l-12.725 28.41a14.286 14.286 0 0 0 0 11.68l12.725 28.41c5.534 12.355 1.637 26.898-9.333 34.83l-25.225 18.242a14.286 14.286 0 0 0-5.84 10.114l-3.184 30.966c-1.385 13.467-12.032 24.114-25.499 25.499l-30.966 3.185a14.286 14.286 0 0 0-10.114 5.84l-18.241 25.224c-7.933 10.97-22.476 14.867-34.832 9.333l-28.41-12.725a14.286 14.286 0 0 0-11.679 0zm-71.345-211.782l-24.244 24.244 81.387 81.386 124.933-124.933-24.244-24.244-100.69 100.69-57.142-57.143z" fill="currentColor" fill-rule="nonzero"/></svg>
