<svg viewBox="0 0 500 501" xmlns="http://www.w3.org/2000/svg"><title>icon-search</title><path d="M444.9 443.28L344.155 342.537c61.762-66.825 60.243-170.606-4.557-235.912-33.412-33.413-76.95-49.613-119.98-49.613-43.032 0-87.075 16.707-119.982 49.613-66.824 66.825-66.824 174.656-.506 240.974 33.413 33.413 76.95 49.613 119.981 49.613 41.513 0 83.025-15.188 115.425-45.056L435.28 452.899c1.52 1.519 3.038 2.025 4.557 2.025 1.518 0 3.543-.506 4.556-2.025 3.037-2.531 3.037-7.087.506-9.619zm-225.788-59.23c-42.019 0-81.506-16.2-110.868-46.07-61.256-61.255-61.256-160.986 0-221.736 29.868-29.87 68.85-46.069 110.868-46.069 42.019 0 81.506 16.2 110.869 46.069 61.256 61.256 61.256 160.987 0 221.737-29.363 29.868-68.85 46.068-110.869 46.068z" fill-rule="nonzero" fill="currentColor"/></svg>
