<svg viewBox="0 0 500 500" xmlns="http://www.w3.org/2000/svg"><title>icon-instagram</title><path d="M249 95.805c48.594 0 54.357.182 73.558 1.062 49.322 2.245 72.36 25.647 74.605 74.605.88 19.186 1.047 24.95 1.047 73.543 0 48.61-.182 54.357-1.047 73.543-2.26 48.913-25.237 72.36-74.605 74.605-19.2.88-24.934 1.062-73.558 1.062-48.594 0-54.357-.182-73.543-1.062-49.443-2.26-72.36-25.768-74.605-74.62-.88-19.186-1.062-24.934-1.062-73.543 0-48.594.198-54.342 1.062-73.543 2.26-48.943 25.237-72.36 74.605-74.605 19.2-.865 24.949-1.047 73.543-1.047zM249 63c-49.428 0-55.616.212-75.03 1.092-66.096 3.033-102.83 39.706-105.863 105.863C67.212 189.384 67 195.572 67 245s.212 55.631 1.092 75.045c3.033 66.096 39.706 102.83 105.863 105.863 19.429.88 25.617 1.092 75.045 1.092s55.631-.212 75.045-1.092c66.035-3.033 102.86-39.706 105.848-105.863C430.788 300.63 431 294.428 431 245s-.212-55.616-1.092-75.03c-2.973-66.035-39.691-102.83-105.848-105.863C304.63 63.212 298.428 63 249 63zm0 88.543c-51.612 0-93.457 41.845-93.457 93.457 0 51.612 41.845 93.472 93.457 93.472 51.612 0 93.457-41.845 93.457-93.472 0-51.612-41.845-93.457-93.457-93.457zm0 154.124c-33.503 0-60.667-27.149-60.667-60.667 0-33.503 27.164-60.667 60.667-60.667s60.667 27.164 60.667 60.667c0 33.518-27.164 60.667-60.667 60.667zm97.158-179.65c-12.073 0-21.856 9.783-21.856 21.84 0 12.058 9.783 21.84 21.856 21.84 12.057 0 21.825-9.782 21.825-21.84 0-12.057-9.768-21.84-21.825-21.84z" fill="currentColor" fill-rule="evenodd"/></svg>
