<svg viewBox="0 0 500 501" xmlns="http://www.w3.org/2000/svg"><title>icon-follow</title><g fill="currentColor" fill-rule="evenodd"><path d="M253 449c110.4 0 200-89.6 200-200S363.4 49 253 49 53 138.6 53 249s89.6 200 200 200zm0-385.2c102 0 185.2 83.2 185.2 185.2 0 102-83.2 185.2-185.2 185.2C151 434.2 67.8 351 67.8 249 67.8 147 151 63.8 253 63.8z" fill-rule="nonzero"/><path d="M155.4 256.6h170l-50.8 50.8c-2.8 2.8-2.8 7.6 0 10.4 2.8 2.8 7.6 2.8 10.4 0l68.8-68.8-68.8-68.8c-1.6-1.6-3.2-2-5.2-2s-3.6.8-5.2 2c-2.8 2.8-2.8 7.6 0 10.4l50.8 50.8h-170c-4 0-7.6 3.2-7.6 7.6 0 4.4 3.2 7.6 7.6 7.6z"/></g></svg>
