<svg width="185" height="50" viewBox="0 0 185 50" xmlns="http://www.w3.org/2000/svg"><title>cp_logo</title><g id="Homepage" fill="none" fill-rule="evenodd"><g id="Copper-Pearl-Homepage-Copy" transform="translate(-874 -70)" fill="currentColor"><g id="Group-9" transform="translate(0 49)"><g id="cp_logo" transform="translate(874 21)"><g id="LogoWhite"><path d="M29.18 2.8l-.08-.28-.23.31h-.19l.05.17-10.58 14L5.8 15.42l-.09-.21-.17.17h-.32l.11.25L0 21h7.79l2.69 5.92-.36.08.36.19-.25.33.47-.11.09.2.14-.19L31.34 37.9v3.42L43.69 50l-8.55-25.4L54.82 0 29.18 2.8zM1.2 20.5l4.36-4.42 2 4.42H1.2zm9.7 6.14L8.34 21l-1.77-3.91L6.05 16l11.75 1.49-.66.87-6.24 8.28zm7.82-9.54L28.89 3.62l4.88 17.88-22.28 5.18 7.23-9.58zm-7.15 10.11l22.34-5.16.69 2.51-.67 2.71-2.51 10.11-19.85-10.17zm31.16 21.48l-10.89-7.63V37.8l3.06-12.36 7.83 23.25zM35 24l-.57-2.07h.06L30 5.68l-.66-2.4L53.68.63 35 24z" id="Shape" fill-rule="nonzero"/><path d="M105.71 22.07a1.53 1.53 0 0 0-.4-.44 2.19 2.19 0 0 0-.72-.35 4 4 0 0 0-1.14-.14 1.9 1.9 0 0 0-1.36.77A8 8 0 0 0 101 23.6a12.45 12.45 0 0 0-.72 1.87l-.38 1.29a16.13 16.13 0 0 0-.61 3c-.15-2.51-.18-5-.11-7.54a.41.41 0 0 0-.38-.31.33.33 0 0 0-.35.31c-1.06.21-2.11.41-3.14.58-1.03.17-2.18.33-3.32.44a.3.3 0 0 0-.3.28.48.48 0 0 0 .23.38c.262.077.53.134.8.17.306.048.61.111.91.19.283.08.56.18.83.3.236.1.435.272.57.49a3.41 3.41 0 0 1 .42 2 6.59 6.59 0 0 1-.61 2.39 5.59 5.59 0 0 1-1.46 1.94 2.82 2.82 0 0 1-2.07.72 1.83 1.83 0 0 1-.91-.28 2.29 2.29 0 0 1-.63-.61 3.2 3.2 0 0 1-.38-.79c-.09-.28-.18-.56-.25-.84a9.67 9.67 0 0 1-.14-1.76 10.79 10.79 0 0 1 .19-2.12 8.26 8.26 0 0 1 .61-2 3.27 3.27 0 0 1 1.2-1.42c.147-.12.323-.2.51-.23l.59-.12a.35.35 0 0 0 .19-.46.4.4 0 0 0-.52-.18l-1.17.38A2.27 2.27 0 0 0 89.3 23a8.75 8.75 0 0 0-.3.86c-.75.49-1.61 1-2.62 1.56s-2.15 1.12-3.28 1.64c-1.13.52-2.26 1-3.39 1.43-.98.39-1.982.724-3 1-.74.21-1.491.38-2.25.51a11.44 11.44 0 0 1-2.41.22 6.8 6.8 0 0 1-2.31-.47 4.59 4.59 0 0 1-2-1.48 4.09 4.09 0 0 1-.83-1.85 7.75 7.75 0 0 1-.09-2.15 13.9 13.9 0 0 1 .34-2.13c.14-.613.323-1.214.55-1.8a18.47 18.47 0 0 1 2.56-4.59A22 22 0 0 1 74 11.82 23.1 23.1 0 0 1 84.35 7a.39.39 0 0 0 .25-.44.38.38 0 0 0-.44-.26 28 28 0 0 0-5.71 1.84 27.4 27.4 0 0 0-4.38 2.48 19.31 19.31 0 0 0-3 2.57 12 12 0 0 0-1.63 2.06c-.43.81-.88 1.61-1.36 2.39a14.78 14.78 0 0 0-1.21 2.46 13.86 13.86 0 0 0-.87 4.26 7.68 7.68 0 0 0 1 4.19 4.52 4.52 0 0 0 1.79 1.51 7 7 0 0 0 2.33.68c.887.11 1.783.11 2.67 0a24 24 0 0 0 2.79-.52 25.61 25.61 0 0 0 2.71-.82c.88-.32 1.7-.63 2.46-.93a31.13 31.13 0 0 0 4-1.9c1-.57 2-1.18 3-1.82 0 .23-.11.46-.15.7a14.57 14.57 0 0 0-.23 2.55 11 11 0 0 0 .08 1.82c.08.341.188.675.32 1 .137.357.322.693.55 1 .228.32.521.59.86.79a2.27 2.27 0 0 0 1.14.28 3.69 3.69 0 0 0 2.16-.77 7.52 7.52 0 0 0 1.82-1.87 7.08 7.08 0 0 0 1.06-2.32 3.19 3.19 0 0 0-.08-2.09 6.11 6.11 0 0 1-.27-.58 3.19 3.19 0 0 0-.3-.58 1.3 1.3 0 0 0-.59-.59 6.26 6.26 0 0 0-.93-.38c.78-.11 1.55-.24 2.31-.38l2-.36v3.37c0 1.41.1 2.81.17 4.22.07 1.41.23 2.82.29 4.23.06 1.41.04 2.82.04 4.21v1.7c.02.226.02.454 0 .68a3.82 3.82 0 0 0-.06.68.44.44 0 0 0 .27.31h.26a.26.26 0 0 0 .11-.07.17.17 0 0 0 0-.14v-.52c.06-1.21.09-2.44.09-3.67s0-2.44.06-3.69.14-2.48.27-3.7a29.89 29.89 0 0 1 .61-3.65c.1-.42.22-.89.36-1.4a8.78 8.78 0 0 1 .55-1.48 6.57 6.57 0 0 1 .83-1.33 3.11 3.11 0 0 1 1.25-.93.82.82 0 0 1 .49 0 2 2 0 0 0 .49 0c.36.278.607.675.7 1.12a5.92 5.92 0 0 1 .17 1.73 11.31 11.31 0 0 1-.27 2 11.6 11.6 0 0 1-.59 1.9 5.73 5.73 0 0 1-.81 1.45 1.54 1.54 0 0 1-.91.65l-1-.45a.41.41 0 0 0-.53.17c-.1.19 0 .35.23.49.29.22.637.349 1 .37.28.017.562-.017.83-.1a1.9 1.9 0 0 0 .63-.33 2 2 0 0 0 .34-.31 7 7 0 0 0 .87-1.59c.312-.734.56-1.493.74-2.27.182-.775.29-1.565.32-2.36a3.21 3.21 0 0 0-.38-1.82l-.21-.37zM114.17 22.1a1.53 1.53 0 0 0-.4-.44 2.19 2.19 0 0 0-.72-.35 4 4 0 0 0-1.14-.14 1.9 1.9 0 0 0-1.36.77 7.8 7.8 0 0 0-1 1.66 12.45 12.45 0 0 0-.72 1.87l-.38 1.29a16.13 16.13 0 0 0-.61 3c-.15-2.51-.18-5-.11-7.54a.41.41 0 0 0-.38-.31.33.33 0 0 0-.35.31c0 1.35.1 2.72.14 4.13.04 1.41.1 2.81.17 4.22.07 1.41.15 2.81.21 4.22.06 1.41.09 2.82.09 4.24v1.7c.02.226.02.454 0 .68a3.82 3.82 0 0 0-.06.68.44.44 0 0 0 .27.31h.25a.26.26 0 0 0 .11-.07.17.17 0 0 0 0-.14v-.52c.06-1.21.09-2.44.09-3.67s-.07-2.44 0-3.69.14-2.48.27-3.7a29.89 29.89 0 0 1 .61-3.65c.1-.42.22-.89.36-1.4a8.78 8.78 0 0 1 .55-1.48 6.57 6.57 0 0 1 .83-1.33 3.11 3.11 0 0 1 1.25-.93.82.82 0 0 1 .49 0 2 2 0 0 0 .49 0c.36.278.607.675.7 1.12a5.92 5.92 0 0 1 .17 1.73 11.31 11.31 0 0 1-.27 2 11.6 11.6 0 0 1-.59 1.9 5.73 5.73 0 0 1-.83 1.43 1.54 1.54 0 0 1-.91.65l-1-.45a.41.41 0 0 0-.53.17c-.1.19 0 .35.23.49.29.22.637.349 1 .37.28.017.562-.017.83-.1a1.9 1.9 0 0 0 .63-.33 2.14 2.14 0 0 0 .32-.28 7 7 0 0 0 .87-1.59c.312-.734.56-1.493.74-2.27.182-.775.29-1.565.32-2.36a3.21 3.21 0 0 0-.38-1.82l-.25-.38z" id="Path"/><path d="M122.36 29.39a18.89 18.89 0 0 1-1.4 1.43 3.5 3.5 0 0 1-1.88.86 1.42 1.42 0 0 1-1.42-.49 4.94 4.94 0 0 1-.81-1.43 12 12 0 0 0 2.1-2.6 25 25 0 0 0 1.57-3.26 3.77 3.77 0 0 0 .19-1 6 6 0 0 0 0-1.47 3 3 0 0 0-.45-1.27 1.07 1.07 0 0 0-1.12-.44 2.93 2.93 0 0 0-1.89 1.22 7.72 7.72 0 0 0-1.25 2.53 10.94 10.94 0 0 0-.44 3.12 9.53 9.53 0 0 0 .45 3l.27.63a4.07 4.07 0 0 0 1.12 1.48 3 3 0 0 0 1.72.65 2.55 2.55 0 0 0 1.67-.7 20.27 20.27 0 0 0 2-1.82.33.33 0 0 0 .19-.21.34.34 0 0 0-.11-.38.39.39 0 0 0-.51.15zm-5.84-1.17a15.71 15.71 0 0 1-.11-2.06 10.82 10.82 0 0 1 .25-2.34 6.28 6.28 0 0 1 .83-2 3.16 3.16 0 0 1 1.7-1.33c.55.269.907.818.93 1.43a5.68 5.68 0 0 1-.25 1.78 12.94 12.94 0 0 1-1.21 2.65 15.23 15.23 0 0 1-2 2.65l-.14-.78z" id="Shape" fill-rule="nonzero"/><path d="M131.61 30.42h-.47l-.85.09c-.29.02-.58.02-.87 0a.9.9 0 0 1-.57-.16 1.29 1.29 0 0 1-.19-1.08 9.63 9.63 0 0 1 .29-1.69c.153-.6.293-1.21.42-1.83a3 3 0 0 0 0-1.52 4.07 4.07 0 0 0-.45-.94l-.74-1.19-.8-1.27a9.82 9.82 0 0 1-.66-1.24 8.34 8.34 0 0 0 0-1 8.62 8.62 0 0 0-.11-.87.35.35 0 0 0-.16-.16.41.41 0 0 0-.56.16 1.38 1.38 0 0 0-.25 1c.046.391.154.773.32 1.13a17.14 17.14 0 0 1-.16 2.15c-.1.75-.23 1.5-.38 2.23s-.31 1.44-.47 2.13c-.16.69-.32 1.3-.47 1.83a14.93 14.93 0 0 1-.55 1.59 14.93 14.93 0 0 0-.55 1.59.32.32 0 0 0 .28.35.41.41 0 0 0 .44-.24c.151-.502.328-.996.53-1.48a11 11 0 0 0 .49-1.47 40.496 40.496 0 0 0 .89-3.46c.14-.67.27-1.33.38-2 .11-.67.21-1.33.28-2 .33.53.66 1 1 1.52a6 6 0 0 1 .7 1.2c.25.636.31 1.331.17 2-.13.74-.28 1.44-.45 2.11a10.24 10.24 0 0 0-.28 1.83c-.052.48.205.94.64 1.15.178.06.363.1.55.12.298.088.602.152.91.19h1a5.26 5.26 0 0 0 .89-.07.39.39 0 0 0 .25-.44.38.38 0 0 0-.44-.26z" id="Path"/><path d="M156.34 13.26a7.4 7.4 0 0 0-.25-2.85 7.58 7.58 0 0 0-1.23-2.5 6.58 6.58 0 0 0-2.07-1.82 6.37 6.37 0 0 0-2.79-.8 5.61 5.61 0 0 0-2.59.47 7.3 7.3 0 0 0-2.1 1.47 10.65 10.65 0 0 0-1.65 2.13 23.6 23.6 0 0 0-1.24 2.46 17.12 17.12 0 0 0-.95 2.3c-.27.8-.5 1.47-.7 2a10.83 10.83 0 0 0-.38 1.38l-.39 1.69c0-.6 0-1.19-.09-1.78-.09-.59-.06-1.15-.06-1.68-.05-1.19-.07-2.35-.06-3.49.01-1.14 0-2.3-.06-3.49a.49.49 0 0 0-.08-.21.38.38 0 0 0-.43 0 .32.32 0 0 0-.23.28v3.44c0 1.16 0 2.34.07 3.53s.1 2.32.15 3.46c.05 1.14.1 2.3.15 3.49a88.13 88.13 0 0 0-.91 12.15c0 1.59 0 3.18.13 4.77a21.73 21.73 0 0 0 .85 4.66.31.31 0 0 0 .13.06.39.39 0 0 0 .48-.27 48.88 48.88 0 0 0 .44-5.12c0-1.81.08-3.64.08-5.5 0-1.86-.06-3.73-.15-5.6-.09-1.87-.18-3.69-.28-5.46.25-1.56.56-3.11.93-4.66a30.49 30.49 0 0 1 1.38-4.38 20.83 20.83 0 0 1 1.93-3.72A9.78 9.78 0 0 1 146.92 7a5.47 5.47 0 0 1 2.35-1 4.48 4.48 0 0 1 2.12.13 4.89 4.89 0 0 1 1.78 1.12A7.44 7.44 0 0 1 154.52 9a8.87 8.87 0 0 1 .84 2.1 6.81 6.81 0 0 1 .25 2.06 18.27 18.27 0 0 1-.8 4.33 19.26 19.26 0 0 1-1.89 4.31 15.58 15.58 0 0 1-2.92 3.6 9.43 9.43 0 0 1-3.88 2.19.42.42 0 0 0-.28.47c0 .2.19.28.47.23a12.24 12.24 0 0 0 4.49-2.55 15.05 15.05 0 0 0 3-3.74 18.69 18.69 0 0 0 1.74-4.39 26.85 26.85 0 0 0 .8-4.35zm-16.77 27.83a.86.86 0 0 1 0-.32v.32zm.09 0v-.47c-.11-1.33-.2-2.67-.25-4-.05-1.33 0-2.67 0-4 0-.84.06-1.72.11-2.65.05-.93.13-1.93.23-3 .127 2.42.203 4.787.23 7.1-.07 2.29-.15 4.63-.32 6.98v.04zM161.7 29.4a18.89 18.89 0 0 1-1.4 1.43 3.55 3.55 0 0 1-1.86.91 1.42 1.42 0 0 1-1.42-.49 4.94 4.94 0 0 1-.81-1.43 12 12 0 0 0 2.1-2.6 25 25 0 0 0 1.57-3.22 3.77 3.77 0 0 0 .19-1 6 6 0 0 0 0-1.47 3 3 0 0 0-.45-1.27 1.07 1.07 0 0 0-1.12-.44 2.93 2.93 0 0 0-1.89 1.18 7.78 7.78 0 0 0-1.23 2.5 10.94 10.94 0 0 0-.44 3.12 9.53 9.53 0 0 0 .45 3l.27.63a4.08 4.08 0 0 0 1.09 1.45 3 3 0 0 0 1.72.65 2.55 2.55 0 0 0 1.67-.7 20.27 20.27 0 0 0 2-1.82.33.33 0 0 0 .19-.21.34.34 0 0 0-.11-.38.38.38 0 0 0-.52.16zm-5.84-1.1a15.71 15.71 0 0 1-.11-2.06 10.82 10.82 0 0 1 .25-2.34 6.3 6.3 0 0 1 .85-2.08 3.21 3.21 0 0 1 1.68-1.33c.55.269.907.818.93 1.43a5.68 5.68 0 0 1-.25 1.78 12.94 12.94 0 0 1-1.21 2.65 15.23 15.23 0 0 1-2 2.65l-.14-.7zM177.14 31.2a5.26 5.26 0 0 0 .89-.07.39.39 0 0 0 .25-.44.38.38 0 0 0-.44-.26h-.47l-.85.09c-.29.02-.58.02-.87 0a.9.9 0 0 1-.57-.16 1.29 1.29 0 0 1-.19-1.08 15.61 15.61 0 0 1 .34-1.68c.147-.6.287-1.21.42-1.83a3 3 0 0 0 0-1.52 4.07 4.07 0 0 0-.45-.94l-.74-1.19-.8-1.27a9.71 9.71 0 0 1-.71-1.26 8.34 8.34 0 0 0 0-1 8.62 8.62 0 0 0-.11-.87.35.35 0 0 0-.16-.16.41.41 0 0 0-.56.16 1.38 1.38 0 0 0-.25 1c.046.391.154.773.32 1.13A15.43 15.43 0 0 1 172 22c-.1.75-.23 1.5-.38 2.23s-.28 1.44-.44 2.13c-.16.69-.32 1.3-.47 1.83a14.93 14.93 0 0 1-.55 1.59 14.93 14.93 0 0 0-.55 1.59.32.32 0 0 0 0 .09 1.72 1.72 0 0 0-.21-.07.88.88 0 0 1-.4-.17 3.18 3.18 0 0 1-.64-1.15 7.68 7.68 0 0 1-.32-1.57c-.06-.62-.09-1.25-.09-1.87 0-.62 0-1.33.08-2 .14-1.1.26-1.93.36-2.5.1-.57.17-1 .21-1.27a1.14 1.14 0 0 0 0-.52.49.49 0 0 0-.25-.17h-.06a.45.45 0 0 0-.49.41 8.12 8.12 0 0 0-.25 1.76 1.54 1.54 0 0 0-1.29-.3 2.78 2.78 0 0 0-1.19.65 5.78 5.78 0 0 0-1 1.15 6.88 6.88 0 0 0-.66 1.26 8.53 8.53 0 0 0-.38 1.31 10.13 10.13 0 0 0-.23 1.73c-.03.535.02 1.07.15 1.59.082.432.405.778.83.89.37.12.774.088 1.12-.09a2.76 2.76 0 0 0 .93-.8c.3-.394.56-.816.78-1.26.259-.489.48-.997.66-1.52a20.4 20.4 0 0 0 .34 2.92 2.83 2.83 0 0 0 .93 1.83c.147.11.313.19.49.24.18.046.357.103.53.17a.46.46 0 0 0 .45-.23.23.23 0 0 0 0-.18.4.4 0 0 0 .32-.22c.168-.467.362-.924.58-1.37a11 11 0 0 0 .49-1.47c.153-.48.303-1.01.45-1.59a46.878 46.878 0 0 0 .82-3.87c.11-.67.21-1.33.28-2 .33.53.66 1 1 1.52a6 6 0 0 1 .7 1.2c.25.636.31 1.331.17 2-.13.67-.3 1.38-.5 2.13a10.24 10.24 0 0 0-.28 1.83c-.052.48.205.94.64 1.15.178.06.363.1.55.12a5.1 5.1 0 0 0 .87.07h1.04zm-9.71-7.2l-.21.77c-.08.25-.15.51-.21.77s-.12.47-.17.63l-.3.87c-.1.28-.21.57-.34.87a5 5 0 0 1-1.36 2.09l-.16.1a.56.56 0 0 1-.71-.33 3.67 3.67 0 0 1-.3-1.73 8.44 8.44 0 0 1 .34-2.34 6.16 6.16 0 0 1 1-2.08 2.37 2.37 0 0 1 1.8-1l.79.73c-.05.17-.1.38-.17.65z" id="Shape" fill-rule="nonzero"/><path d="M184.38 14.68c-.1-.47-.18-.89-.25-1.26s-.14-.7-.21-1c-.07-.3-.17-.61-.28-.94-.11-.33-.27-.72-.47-1.19-.2-.47-.31-.66-.49-1-.18-.34-.37-.67-.57-1a6.13 6.13 0 0 0-.76-1 4.59 4.59 0 0 0-1.12-.94 1.25 1.25 0 0 0-1.08-.14 1.54 1.54 0 0 0-.64 1.34 31.68 31.68 0 0 0-.27 4.57c0 1.51.09 3 .19 4.57.08 1.28.16 2.46.25 3.53.09 1.07.19 2.25.32 3.53.04.513.13 1.283.27 2.31.14 1 .34 2.13.59 3.3l-.61.84-.59.79c-.24.31-.49.63-.76.94-.27.31-.56.6-.87.87a2.8 2.8 0 0 1-.93.54.43.43 0 0 0-.44 0 .28.28 0 0 0 0 .4v.09a.44.44 0 0 0 .42.14 3.61 3.61 0 0 0 1.16-.58 7.21 7.21 0 0 0 1-.91c.309-.317.599-.65.87-1 .27-.39.51-.72.74-1l.15-.21c.15.61.31 1.19.49 1.75.16.524.35 1.038.57 1.54.181.424.41.827.68 1.2.206.3.48.547.8.72a.43.43 0 0 0 .49-.24l.11-.56v-.06a.32.32 0 0 0-.25-.38.36.36 0 0 0-.45.19 5.42 5.42 0 0 1-.57-1.06c-.18-.43-.36-.87-.53-1.34-.17-.47-.33-.93-.47-1.4-.14-.47-.25-.86-.32-1.19a26.33 26.33 0 0 0 2-3.4 22.68 22.68 0 0 0 1.4-3.68 17.82 17.82 0 0 0 .64-3.84 15 15 0 0 0-.21-3.84zm-1.1 7.25a23.58 23.58 0 0 1-2.84 6.53 22 22 0 0 1-.4-2.41c-.09-.81-.18-1.63-.25-2.44a92.846 92.846 0 0 1-.54-5.34c-.13-1.77-.23-3.55-.28-5.34V9.82a6.76 6.76 0 0 1 .68-3 .77.77 0 0 1 .53.15c.182.12.341.273.47.45.148.172.281.356.4.55.082.147.175.288.28.42a14.91 14.91 0 0 1 1.52 3.14 16.85 16.85 0 0 1 .8 3.35 17.29 17.29 0 0 1-.37 7.05z" id="Shape" fill-rule="nonzero"/></g></g></g></g></g></svg>
