<svg viewBox="0 0 132 133" xmlns="http://www.w3.org/2000/svg"><title>watercolor circle</title><g fill="#35D8CF" fill-rule="evenodd"><path d="M70.173.988c.11-.33-.428-.402-1.093-.148-.226.088-.412.268-.412.401 0 .346 1.382.114 1.505-.253M13.273 55.688c-.37-.14-.75-.163-.846-.05-.095.113-.428.543-.739.958-.705.938-.71 1.202-.027 1.202.297 0 .93-.416 1.412-.926l.873-.927-.673-.257M6.254 66.075c.478-.16.411-3.452-.07-3.452-.207 0-.456.294-.557.653-.1.359-.191.711-.206.782-.088.475.583 2.1.833 2.017M7.482 67.574c-.704.677-.786.7-.953.262-.176-.459-.192-.458-.374.023-.239.634-.157 3.524.112 3.96.312.505 1.11-.053 1.443-1.012.194-.553.201-.93.029-1.141-.18-.216-.08-.643.32-1.378.73-1.33.44-1.689-.577-.714M6.176 60.553c0-.505-.443-.754-.61-.343-.228.569-.182.718.218.718a.384.384 0 0 0 .392-.375M21.25 43.194c-.158 0-.22-.176-.139-.392.084-.214.037-.39-.102-.39-.138 0-.252.088-.252.196 0 .109-.351.353-.781.545-.463.204-.781.542-.781.83 0 .267-.118.556-.26.645-.387.239-.317.575.156.756.264.101.6-.074.918-.477.276-.352.732-.712 1.016-.803.538-.172.722-.91.225-.91M6.667 73.335c-.4.249-.252.522.31.564.44.033.483-.028.23-.333-.17-.206-.414-.309-.54-.231M16.2 51.018c.215-.178.393-.575.395-.88.002-.305.472-1.015 1.042-1.579.57-.563 1.037-1.113 1.037-1.222 0-.48-.585-.497-.99-.031-.243.279-.716.594-1.05.7-.6.19-.603.183-.165-.484.243-.372.546-.677.673-.677.126 0 .23-.117.23-.261 0-.143-.228-.26-.505-.26-.278 0-.578.117-.667.26-.087.144-.386.261-.663.261-.319 0-.632.309-.86.848-.197.466-.727 1.17-1.175 1.567-.518.456-.817.965-.817 1.39 0 .37.088.627.196.572.107-.056.608-.29 1.113-.524.595-.272 1.087-.773 1.399-1.42.458-.955.49-.972.703-.403.177.47.055.83-.572 1.696-.438.604-.992 1.105-1.232 1.113-.239.009-.69.155-1.004.326a3.05 3.05 0 0 1-1.237.312c-.807 0-.85.331-.127 1.005.408.382.46.555.21.709-.189.117-.373.073-.43-.103-.058-.169-.211-.307-.343-.307-.13 0-.238.118-.238.261 0 .143.103.26.23.26.126 0 .291.236.366.522.162.62.917.694 1.14.111.11-.287.349-.363.795-.25.916.23 1.56-.048 1.737-.75.083-.336.447-.805.807-1.04.782-.515.86-.944.132-.754-.63.165-.715-.48-.13-.968M9.132 60.484c.524-.662 1.026-3.05.748-3.56-.123-.223-1.08 2.189-1.199 3.021-.035.248-.145.532-.244.63-.22.222-.235.614-.02.614.086 0 .408-.317.715-.705M19.116 90.767c.172.307.61.84.976 1.185 1.058.995.847.022-.376-1.744-.573-.827-1.041-1.649-1.042-1.827 0-.177-.173-.53-.386-.782-.212-.253-.56-.694-.77-.981-.35-.474-.36-.425-.106.521.248.928.508 1.48 1.704 3.628M16.172 44.351c.343-.086.701-.03.797.125.198.321.664.382.66.087 0-.108-.303-.336-.674-.509-.525-.243-.753-.243-1.03 0-.496.437-.464.476.247.297M31.433 106.309a.26.26 0 1 0 0 0M14.405 79.896c.175-.175.084-.41-.573-1.494-.393-.648-.395-.647-.223.262.185.977.525 1.504.796 1.232M22.322 97.574c.398.48.765.482 1.397.003.464-.352.455-.378-.196-.541-.374-.095-.87-.1-1.103-.01v-.001c-.34.13-.359.234-.098.549M13.202 82.787c.003-.243-.114-.514-.256-.602-.33-.205-.33.141 0 .651.217.338.252.33.256-.05M12.425 84.777c0 .223.117.407.26.407.143 0 .261-.11.261-.246 0-.134-.118-.319-.26-.406-.144-.089-.261.021-.261.245M16.348 84.28c-.447-.275-.323.822.143 1.289.233.232.47.374.528.316.164-.164-.36-1.411-.671-1.605"/><path d="M35.34 14.244c.286 0 .52.045.52.1 0 .055-.234.162-.52.237-.289.075-.523.03-.523-.1s.234-.237.522-.237zM49.712 9.81c.856.002 1.08-.15 1.985-1.337l1.019-1.339 1.98-.059c1.173-.035 2.152-.2 2.395-.402.227-.189.844-.384 1.372-.434.529-.05 1.136-.166 1.35-.26.216-.091 1.33-.186 2.475-.209 1.145-.023 2.405-.198 2.799-.39.745-.361.954-.781.391-.789-.218-.002-.196-.088.064-.256.595-.384 1.812-.31 2.26.138.315.316.79.369 2.26.25 3.873-.311 7.99-.308 8.419.006.585.43.203.91-.725.91-.426 0-1.067.191-1.423.425-.564.37-.843.384-2.156.105-2.04-.432-6.48-.017-7.384.692-.187.147-1.276.418-2.422.603-1.146.186-2.2.423-2.344.526-.439.318-2.771.597-4.621.553-1.568-.037-1.758.012-1.758.452 0 .395-.17.484-.847.439-.465-.03-.993.057-1.172.194-.181.138-.809.173-1.398.078-.939-.15-1.05-.116-.902.272.247.643-.288.868-2.068.873-.993.002-1.781.153-2.148.41-.318.224-.697.334-.84.246-.142-.09-.257-.243-.255-.341.009-.353 2.746-1.358 3.694-1.356zm16.351-7.953c.144.089.261.213.261.276 0 .064-.117.115-.26.115-.144 0-.26-.125-.26-.276 0-.151.116-.203.26-.115zm4.34 1.48c.654.127.743.737.11.737-.321 0-.543-.169-.543-.41 0-.244.176-.376.433-.326zm4.21-.338c.26.164.193.26-.26.383-.334.09-.755.164-.934.167-.178.002-.326-.173-.326-.388 0-.427.944-.528 1.52-.162zm-14.669 7.161c-.64.036-.796-.07-.869-.577-.08-.566-.013-.608.782-.488.478.073 1.09.016 1.363-.127.374-.196.55-.157.729.163.13.23.404.42.612.42.208 0 .377.088.377.195-.002.178-.855.296-2.994.414zM80.63 4.334c.135 0 .317.117.407.26.088.144-.023.26-.245.26-.224 0-.406-.116-.406-.26 0-.143.11-.26.244-.26zM15.22 30.922c1.015.368.686.542 3.673-1.942.862-.718 1.576-1.439 1.585-1.602.01-.164.195-.366.41-.449.214-.083.39-.447.39-.81 0-.39.15-.66.36-.66.899 0 3.47-1.84 5.369-3.841.683-.72 1.128-1.108 3.124-2.73 1.074-.87 2.143-1.773 2.377-2.005.93-.926 1.559-1.335 2.052-1.335.286 0 .519-.114.519-.253 0-.14.17-.187.378-.107.209.081.644-.04.969-.268.325-.229.785-.415 1.024-.415.24 0 1.004-.389 1.7-.865 1.861-1.271 5.235-2.868 5.69-2.693.621.238.462.614-.387.91-.431.15-.781.444-.781.651 0 .302.192.332.975.149 1.261-.293 1.628-.294 1.628-.002 0 .13-.616.32-1.367.421-.752.103-1.683.348-2.07.547-.387.198-.94.36-1.23.36-1.256 0-4.707 1.963-4.707 2.677 0 .131-.263.47-.585.752l-.586.513.65-.315c.358-.173.71-.4.782-.506.071-.105.751-.063 1.51.094 1.047.216 1.503.208 1.884-.032.278-.172.693-.314.923-.314.23 0 .731-.222 1.113-.495.381-.272 1.176-.624 1.767-.783.59-.16 1.21-.454 1.374-.653.165-.199.517-.306.78-.237.27.071.695-.093.968-.374.268-.274 1.274-.828 2.236-1.231 1.684-.704 1.774-.716 2.425-.288.43.283.79.359.986.208.169-.131 1.186-.51 2.26-.842 1.074-.333 2-.643 2.056-.688.056-.044-.046-.26-.227-.479-.283-.341-.216-.397.48-.397.444 0 1.327.138 1.96.308 1.417.38 3.52-.021 4.86-.93 1.007-.68 2.85-1.13 2.85-.694 0 .15.123.272.275.272.152 0 .21-.104.132-.233-.207-.335.29-.46 2.067-.521.858-.03 2.313-.16 3.231-.289.92-.128 1.856-.138 2.083-.022.77.395 2.674.569 3.024.277.187-.155 1.296-.294 2.467-.309 1.347-.018 2.25-.15 2.46-.362.184-.183.685-.322 1.113-.31 1.17.032 1.502-.265.96-.864-.526-.582-.92-.601-2.3-.109-.796.285-1.313.304-2.343.09-2.119-.441-2.178-.492-1.062-.887.79-.28 1.21-.3 1.738-.086 1.055.428 2.36-.155 1.517-.677-.63-.39-.151-.653 1.19-.653.796 0 1.667-.118 1.935-.26.329-.176.724-.17 1.219.019.54.206.992.195 1.713-.043.696-.229 1.148-.244 1.562-.054.827.382 2.935.86 3.784.86.832 0 1.96.698 1.73 1.071-.087.14-.381.183-.656.095-.778-.247-.586.056.322.51.452.226 1.11.41 1.462.41.541 0 .622-.1.52-.639-.081-.425.016-.691.29-.797.743-.285-1.899-1.7-3.37-1.804-.71-.051-1.59-.29-1.957-.53-.366-.24-.98-.417-1.365-.393-.383.026-1.499.033-2.48.018-1.55-.024-1.8-.096-1.918-.549-.12-.461-.355-.522-2.026-.522-1.262 0-1.988-.116-2.18-.35-.16-.191-.934-.492-1.72-.668-.787-.177-1.495-.425-1.574-.552-.196-.32-2.037-.12-2.156.236-.141.426-1.513.355-1.97-.102-.233-.232-.458-.29-.551-.14-.086.14-.873.229-1.75.198-2.084-.074-2.35.463-.354.713 1.709.214 2.182.665.697.665-.573 0-1.115-.118-1.203-.262-.1-.159-.332-.171-.602-.03-.241.127-.919.311-1.506.408-.943.157-1.114.104-1.481-.459-.374-.57-.528-.614-1.505-.437-1.06.196-1.534.574-1.542 1.237-.005.433-.77.415-1.285-.03-.657-.57-1.843-.772-1.843-.314 0 .21.205.498.455.639.41.229.39.28-.2.504-.66.251-1.612.231-2.508-.053-.265-.084-.817.022-1.227.235-.41.213-1.114.376-1.563.361L56.3 3.76l.911-.284c.885-.275 1.29-.605 1.299-1.057.005-.312-2.555.071-3.642.545-.502.218-1.292.372-1.758.342-.466-.03-.845.072-.845.226 0 .155.174.28.39.28.214 0 .39.132.39.292 0 .176-.279.238-.702.158-.42-.081-1.068.062-1.623.36-.507.272-1.107.494-1.333.494-.226 0-.99.28-1.7.624-2.086 1.008-3.261 1.26-3.763.804-.538-.486-1.658-.496-2.056-.016-.411.496.06.778.932.558 1.181-.296.54.48-.71.859-.633.193-1.522.516-1.973.718-.452.201-1.008.366-1.237.366-.23 0-.417.118-.417.26 0 .144-.22.261-.493.261-.27 0-.563.184-.649.409-.085.224-.264.34-.395.26-.514-.319-1.108.174-.953.791.161.645-.46 1.188-1.098.959-.184-.066-.619.067-.968.296-.348.229-.813.415-1.033.415-.22 0-.4.105-.4.23 0 .127-.205.308-.455.404-1.503.565-3.095 1.687-3.416 2.404-.37.832-2.17 2.179-2.91 2.179-.47 0-1.215.727-1.66 1.62-.157.316-.54.638-.849.716-.31.078-.945.485-1.413.903-.746.67-.792.782-.38.928.427.15.413.202-.146.552-.34.211-.934.522-1.32.69-.387.168-.914.63-1.172 1.028-.258.397-.966 1.253-1.573 1.902-.607.65-1.172 1.385-1.254 1.637-.084.25-.26.456-.394.456s-.448.205-.698.457c-.251.251-.473.76-.492 1.131-.028.548.138.739.878 1.006zM21.654 42.15c.062 0 .186-.117.274-.26.09-.144.037-.261-.113-.261-.152 0-.277.117-.277.261 0 .143.053.26.116.26M23.1 40.625c-.584-.205-.78-.194-.78.04 0 .172.351.337.78.367.992.069.992-.06 0-.407"/><path d="M37.618 115.335c-.535-.406-.567-.581-.157-.835.166-.102.458.03.652.296.638.875.355 1.186-.495.539zm-5.47 4.429c-.085.085-.368.102-.63.04-.455-.108-.455-.122-.009-.316.471-.205.923-.01.639.276zm-5.923-14.76a.26.26 0 1 1 .002-.52.26.26 0 0 1-.002.52zm-.52-3.416c0-.14.164-.103.364.081.405.375.345.615-.087.347-.152-.094-.277-.286-.277-.428zM14.563 89.001c-.538.022-.805-.143-1.04-.643-.423-.894-.405-1.004.194-1.161.654-.17 1.143.414.926 1.102-.13.412-.077.497.238.376.224-.087.408-.055.408.07 0 .123-.327.24-.726.256zM4.69 46.722c.47-.203.924-.01.638.277-.083.084-.367.102-.63.04-.453-.108-.453-.122-.008-.317zm2.462 2.316c.206.207-.21.676-.6.676-.206 0-.375-.104-.375-.233 0-.265.792-.624.975-.443zm-.698-5.464c.152-.094.334-.115.402-.047.069.069-.057.194-.278.279-.458.175-.539.025-.124-.232zm1.03 3.641c-.414.416-.566.443-.902.164-.581-.483-.504-.77.288-1.072.934-.355 1.313.206.613.908zm2.272-5.649c.057-.25.476-.561.931-.693.455-.132.623-.25.371-.263-.856-.045-.244-1.067.64-1.067.256 0 .467-.105.467-.23 0-.128.293-.423.652-.66.834-.547.836-.13.003.811-1.13 1.276-1.176 1.35-1.176 1.893 0 .382-.168.533-.597.533-.33 0-.728.128-.883.284-.34.339-.551.022-.408-.608zm121.401 21.058c-.274-2.59-.434-4.938-.639-9.333-.16-3.455-1.188-6.485-4.391-12.929-.8-1.613-2.975-4.21-3.523-4.21-.327 0-2.074-1.163-2.48-1.651-.379-.455-2.746-2.117-3.413-2.397-.287-.12-.96-.234-1.498-.252-.777-.028-.976.06-.976.43 0 .258.322.671.716.92.394.25 1.185.82 1.758 1.266.573.448 1.675 1.196 2.45 1.664 1.754 1.058 2.284 1.674 2.658 3.089.161.612.396 1.177.522 1.254.125.077.228.34.23.583 0 .242.177.777.39 1.188.215.41.39.93.39 1.154 0 .513 2.322 7.391 2.62 7.762.124.152.064.949-.135 1.802-.195.841-.302 1.661-.24 1.823.061.162 0 1.08-.135 2.038-.21 1.484-.177 1.89.224 2.728.64 1.34.906 4.329.517 5.81-.17.645-.362 1.76-.425 2.477-.066.717-.394 1.89-.733 2.608-.574 1.22-.969 2.973-.94 4.173.006.287.026 1.034.043 1.66.03 1.09-.713 3.948-1.476 5.682-.2.453-.362.995-.362 1.207 0 .212-.177.531-.391.71-.215.178-.39.41-.39.515 0 .105-.636 1.352-1.412 2.772-.778 1.419-1.71 3.461-2.07 4.537-.655 1.95-.95 2.591-2.114 4.564a51.16 51.16 0 0 0-1.32 2.446c-.919 1.83-2.967 4.191-7.961 9.185-3.607 3.606-6.08 5.713-6.708 5.713-.113 0-.899.446-1.744.992-1.708 1.101-5.874 3.176-6.405 3.19-.187.004-.568.18-.847.39-.278.21-.716.383-.975.383-.26 0-.472.116-.472.258 0 .5-6.062 2.776-8.462 3.176-.86.143-1.797.41-2.084.592-.286.183-.93.41-1.431.507a63.549 63.549 0 0 0-2.474.509c-.43.096-1.882.287-3.226.423-1.99.202-2.58.178-3.177-.13-.403-.209-1.09-.379-1.526-.379-.437 0-.794-.105-.794-.232s-.147-.219-.326-.203c-.179.017-1.204-.114-2.278-.29l-3.645-.595a30.349 30.349 0 0 1-3.348-.781c-.91-.28-2.05-.508-2.533-.508-1.037 0-3.014-.728-3.311-1.22-.115-.19-.378-.344-.586-.344-.207 0-.378-.096-.378-.214s-.605-.489-1.344-.823c-1.491-.676-4.161-2.367-5.165-3.273-.358-.323-1.083-.806-1.611-1.073-1.042-.527-3.291-2.31-6.535-5.18-2.76-2.442-2.695-2.403-3.303-2.022-.422.265-.68.241-1.424-.132-1.046-.523-1.408-1.107-.687-1.107.266 0 .559-.192.648-.427.196-.51-.493-1.659-.992-1.659-.194 0-.51-.188-.7-.418-.19-.23-.619-.522-.95-.648-.332-.127-.682-.437-.78-.69-.281-.733-1.649-2.677-1.884-2.677-.118 0-.287.187-.374.418-.09.234-.328.354-.541.272-.208-.08-.449-.034-.533.103-.324.525-.873.244-.823-.42.039-.533-.166-.796-.994-1.27-.77-.445-1.024-.748-.977-1.167.092-.812-.682-1.861-1.679-2.278-.87-.365-1.102-.75-.561-.93.218-.073.207-.268-.037-.727-.244-.459-.255-.654-.037-.726.164-.056.298-.266.298-.47 0-.257-.317-.37-1.043-.37-.572 0-1.042-.117-1.042-.26 0-.143.12-.26.261-.26.443 0 .291-.564-.39-1.458-.358-.47-.654-.95-.657-1.068-.005-.117-.385-.804-.847-1.527-.8-1.253-.87-1.299-1.49-.982-1.021.521-1.229.42-1.706-.834-.246-.645-.532-1.174-.635-1.174-.104 0-.296-.381-.428-.848-.132-.469-.497-.961-.818-1.104-.72-.32-.744-.81-.059-1.177.287-.154.52-.202.52-.107 0 .094.176.026.389-.151.529-.44.236-.814-.567-.727-.97.106-1.377-.648-.736-1.359.631-.698 1.538-.593 1.65.192.15 1.067.827.69.827-.46 0-.99.038-1.04.652-.885.532.133.65.067.65-.362 0-.29-.223-.976-.493-1.528-.747-1.518-1.832-6.386-1.546-6.939.13-.252.163-1.309.073-2.347-.13-1.467-.074-2.063.247-2.671.228-.43.415-1.174.416-1.653 0-.584.192-1.026.579-1.34.472-.383.518-.539.256-.856-.177-.213-.248-.579-.159-.812.277-.724-1.018-.51-1.768.293-.52.559-.736 1.18-.971 2.804-.37 2.543-.367 3.692.01 4.621.203.498.208.938.02 1.481-.148.426-.211.999-.139 1.273.072.274-.055.942-.28 1.484-.498 1.195-.498 1.181-.047 1.181.198 0 .425.166.503.37.078.202.457.525.843.717.412.204.866.767 1.101 1.363.373.95.368 1.039-.083 1.37-.469.342-.468.354.02.361.472.008.475.028.049.275-.681.397-.906.124-1.258-1.525-.176-.823-.409-1.598-.517-1.723-.25-.286-.614 2.035-.404 2.58.088.233-.01.468-.232.553-.212.082-.386.44-.386.795 0 .4-.124.604-.326.538-.421-.139-.586-1.24-.184-1.24.203 0 .247-.238.127-.717-.23-.92-.21-.907-.99-.609-1.185.45-1.133 1.5.233 4.626.198.452.359 1.06.359 1.353 0 .293.108.599.24.681.133.082.322.529.422.993.1.465.4 1.308.671 1.873.269.565.49 1.21.491 1.434 0 .224.177.743.39 1.155.215.41.39 1.117.39 1.571 0 .454.158 1.057.352 1.34.194.282.426.826.52 1.207.092.38.248.91.347 1.174.16.428.13.44-.271.113-.248-.202-.391-.525-.317-.717.073-.191-.156-.538-.509-.77-.354-.233-.643-.52-.643-.641 0-.122-.331-.782-.735-1.47a19.202 19.202 0 0 1-1.216-2.555c-.264-.718-.637-1.489-.827-1.715-.19-.227-.35-.58-.353-.783-.01-.515-1.104-3.621-1.555-4.413-.203-.359-.341-.795-.306-.97.035-.174-.315-1.112-.778-2.086-.462-.972-.81-1.923-.774-2.112.036-.188-.129-.927-.364-1.64-.238-.713-.373-1.447-.303-1.63.07-.184.041-.812-.065-1.393-.138-.758-.053-1.519.302-2.676.394-1.284.43-1.694.178-1.999-.24-.29-.243-.455-.015-.684.167-.167.301-.876.301-1.578 0-.881.161-1.481.522-1.939.331-.422.52-1.058.52-1.75 0-1.27.349-1.712 1.354-1.712.793 0 .976-.513.365-1.021-.364-.302-.292-1.185.143-1.745.123-.16.389-.805.59-1.435.669-2.083 1.575-4.007 2.17-4.602.523-.522.711-1.226.647-2.4-.012-.21.203-.54.48-.733.275-.193.504-.55.51-.793.01-.583 1.222-1.95 1.55-1.748.156.097.199-.126.109-.572-.112-.564.008-.876.524-1.363.37-.347.671-.708.671-.802 0-.34 2.484-2.868 2.82-2.868.247 0 .223-.12-.09-.433-.394-.393-.395-.455-.019-.665.417-.233.589-1.25.212-1.25-.111 0-.463.183-.782.407-.597.42-.79 1.159-.302 1.159.15 0 .199.125.103.278-.094.153-.355.208-.578.122-.245-.093-.699.126-1.143.551-.966.927-1.213.624-.49-.602.533-.904.541-1 .136-1.297-.41-.299-.406-.365.043-.983.264-.363.687-.665.937-.67.303-.004.455-.213.455-.622 0-.466-.203-.675-.846-.869-.466-.14-.816-.392-.78-.56.035-.167.093-.436.13-.597.168-.762-.698-.41-1.783.723-1.078 1.128-1.561 1.872-3.013 4.642-.24.455-.62.983-.847 1.17-.227.189-.411.617-.411.95 0 .819-.515 1.927-1.263 2.719-.339.359-.847 1.18-1.13 1.826a190.494 190.494 0 0 1-1.896 4.185c-.173.364-.233.889-.137 1.167.123.35.007.64-.376.941-.574.452-1.392 3.094-1.567 5.052-.207 2.34-.49 4.18-.663 4.304-.1.07-.287 1.537-.415 3.26H.55c-.274 3.666-.266 4.613.045 5.11.125.201.21 1.322.186 2.492-.038 1.806.032 2.192.462 2.582.536.488.668 1.414.258 1.825-.215.217.068 1.526.702 3.248.08.215.186.625.238.912.156.864.91 3.082 1.307 3.846.205.396.3.718.213.718-.088 0 .023.261.245.58.224.319.407.97.407 1.447 0 .97.642 2.407 1.075 2.407.155 0 .219.164.142.364-.077.2.087.787.364 1.304.275.516.5 1.161.5 1.434 0 .926 2.018 4.928 2.715 5.385.413.271.671.681.671 1.068 0 .606 1.196 2.703 1.54 2.703.092 0 .316.323.496.717 1.153 2.528 2.661 4.363 4.245 5.167.698.355 1.27.718 1.27.808 0 .089-.205.322-.455.517-.414.322-.418.384-.042.68.227.18.55.588.72.906.249.467.46.549 1.084.424.82-.164 1.097.252.357.537-.744.285.118 1.01.994.835.684-.137.726-.098.6.565-.076.39-.067.565.017.384.168-.356.892-.451.892-.117 0 .115-.126.335-.28.489-.346.347.776 1.65 1.422 1.65.238 0 .54.282.67.627.146.381.594.743 1.15.927.58.19 1.1.627 1.439 1.199.308.526.734.899 1.026.899.274 0 .644.175.822.39.178.216.661.391 1.074.391.411 0 .75.118.75.261 0 .144-.246.262-.544.262-.78 0-.495.57.558 1.114.493.255.866.58.83.725-.039.144.078.303.26.355.18.051.836.232 1.46.402.925.252 1.107.4 1 .812-.182.697.135.856 1.963.992.247.018.52.31.606.651.208.831 1.277 1.574 2.823 1.958.703.177 1.598.487 1.991.691.394.203 1.273.496 1.953.648.68.153 1.563.51 1.962.795.493.352 1.25.544 2.37.599 1.708.088 3.274.573 3.735 1.161.148.187.908.44 1.692.563.784.122 1.895.395 2.467.605.573.211 2.272.465 3.776.564 1.504.1 3.554.294 4.557.434 1.002.141 2.392.261 3.09.269 1.02.011 1.293.11 1.396.51.163.616.19.616 1.077-.04.602-.448.833-.488 1.37-.245.478.22 1.108.218 2.453-.004.996-.165 3.157-.354 4.805-.422 1.647-.068 3.496-.293 4.11-.5.613-.208 1.239-.38 1.39-.38.15 0 .474-.245.715-.546.26-.32.813-.577 1.345-.623 2.693-.229 5.855-1.127 8.453-2.4 2.638-1.294 3.372-1.861 4.068-3.148.523-.967 1.025-1.374 3.223-2.613 1.432-.808 3.541-2.185 4.687-3.06 1.145-.877 2.49-1.821 2.99-2.1.498-.278 1.063-.653 1.255-.832.193-.18.429-.326.528-.326.099 0 .471-.266.828-.593a12.897 12.897 0 0 1 1.458-1.108c.915-.58 2.966-2.873 2.966-3.312 0-.436 1.58-2.87 2.247-3.464.322-.286.829-.99 1.123-1.564.297-.573 1.298-1.858 2.23-2.853.929-.997 1.69-1.969 1.69-2.16 0-.193.17-.415.378-.495.206-.08.69-.557 1.074-1.06.532-.699.692-1.194.673-2.095-.013-.647.148-1.51.358-1.917.449-.87.505-2.246.097-2.382-.504-.168.719-3.285 1.844-4.7.58-.731 1.129-1.632 1.219-2.004.09-.373.388-1.001.664-1.397.666-.953.902-2.915 1.104-9.186.121-3.736.267-5.324.512-5.607.534-.615.708-3.265.405-6.134zM85.202 1.465c.36 0 .652-.118.652-.26 0-.144-.293-.261-.652-.261-.357 0-.65.117-.65.26 0 .143.293.26.65.26M38.274 27.703c.086.087.31.096.5.02.207-.082.144-.145-.159-.157-.274-.011-.428.05-.341.137M37.33 28.74c-.529.204-.565.631-.053.631.39 0 .807-.468.6-.675-.067-.066-.312-.045-.548.045"/><path d="M33.681 31.07c.411-.213.957-.321 1.214-.24.534.17 1.225-.304 1.225-.839 0-.482-1.276-.468-1.462.016a.398.398 0 0 1-.512.233c-.202-.078-1.13.226-2.061.677-.932.449-1.694.93-1.694 1.07 0 .39.68.3 1.042-.139.178-.214.59-.39.913-.39.325 0 .926-.175 1.335-.389M42.2 25.683a6.654 6.654 0 0 1-.937.4c-.251.079-.455.256-.455.396 0 .566.521.51 1.29-.138.858-.723.915-1.098.102-.658M33.976 25.31c-.088-.088-.403-.082-.7.013-.593.188-.7.529-.256.803.319.197 1.208-.562.956-.815M31.861 26.654c-.235.09-.428.27-.428.4s.229.092.509-.083c.59-.37.543-.556-.08-.317M102.503 21.687c-.359.222-.299.827.097.979.188.072.664.07 1.057-.006l.713-.136-.811-.495c-.447-.271-.921-.426-1.056-.342M117.81 26.921c.064-.064-.129-.247-.427-.407-.298-.16-.543-.182-.543-.05 0 .269.788.64.97.457M67.912 11.983c-.304.248-.216.32.477.39.468.045 1.044 0 1.28-.103.322-.138.2-.237-.477-.39-.594-.133-1.038-.098-1.28.103M103.715 11.245c1.445.718 2.836 1.515 3.091 1.773.473.48 1.347.513 1.265.05-.024-.143-.403-.362-.84-.49-.437-.127-.866-.457-.953-.733-.088-.276-.471-.637-.852-.804-.382-.165-1.209-.687-1.838-1.157-.684-.511-1.451-.856-1.907-.856-1.5 0-.72.85 2.034 2.217M32.734 18.815c0-.212.381-.587.847-.834.695-.37.759-.47.356-.554-.554-.117-1.694.403-2.17.99-.462.569-.415 1.13.078.941.226-.086.52-.159.65-.159.133 0 .24-.172.24-.384M94.707 9.159c-.178-.216-.428-.391-.553-.391-.387 0-.252.455.183.623.638.246.722.192.37-.232M76.74 17.872c0 .309 1.972.645 2.362.403.472-.292-.267-.632-1.385-.636-.537-.002-.977.103-.977.233M93.94 18.8a36.51 36.51 0 0 1 1.776.51c.444.149.565.12.43-.098-.219-.357-1.091-.714-2.527-1.037-1.45-.326-1.163.237.32.625M48.296 16.918c.333-.332.946-.472 2.24-.513.98-.031 1.917-.165 2.08-.298.165-.131 1.149-.323 2.186-.426 1.039-.103 1.888-.267 1.888-.367 0-.1.44-.204.977-.232 1.942-.104 3.45-.37 3.45-.61 0-.597-.894-.54-7.16.461-.574.091-1.184.278-1.357.413-.172.136-.429.176-.568.09-.142-.088-.977-.222-1.857-.3-1.197-.105-1.756-.039-2.22.266-.34.224-.784.407-.983.407-.2 0-.774.278-1.276.62-.848.576-2.774 1.206-5.3 1.734-.585.123-1.593.505-2.24.849-1.013.539-1.213.573-1.422.24-.212-.335-.302-.327-.692.063-.527.528-.358.974.28.744.332-.118.284.022-.182.534-.348.38-.875.69-1.172.685-.53-.008-.53-.016-.04-.39.728-.548.336-.747-.762-.385-.683.226-.904.425-.792.716.091.237-.06.551-.372.77-.771.542-.666.958.188.74.394-.1 1.183-.245 1.753-.323.916-.126 2.104-.673 2.479-1.14.398-.496 2.605-1.649 3.995-2.086.882-.277 1.838-.616 2.124-.752 1.457-.694 2.624-1.054 3.417-1.054.49 0 1.083-.203 1.338-.456M101.407 21.965c.063-.062-.13-.246-.428-.406-.3-.16-.543-.183-.543-.048 0 .266.788.637.97.454M27.559 30.459c-1.03.551-1.254.982-.622 1.193.35.116 2.088-1.39 1.863-1.614-.086-.087-.645.102-1.241.42M39.414 26.94c-.098.1-.079.28.043.4.258.26 1.089-.003 1.089-.344 0-.272-.872-.316-1.132-.055M22.244 36.773c.06-.185-.148-.245-.565-.165-.364.07-.661.239-.661.375 0 .341 1.108.152 1.226-.21M25.092 32.942c-.124.216-.503.636-.847.935-.343.298-.624.714-.624.923 0 .22.544-.129 1.297-.835.713-.668 1.274-1.3 1.245-1.404-.086-.309-.83-.044-1.071.38M45.494 23.886c0 .139.176.185.39.103.215-.084.391-.197.391-.254 0-.055-.176-.101-.39-.101-.215 0-.391.112-.391.252"/><path d="M123.805 31.454c-.18-.003-.5-.118-.716-.257-.305-.198-.233-.254.326-.257.393-.002.715.114.715.257 0 .143-.146.26-.325.257zm-8.27-14.712c.5.237 1.242.71 1.648 1.053.405.343.944.622 1.196.622.497 0 2.26 2.019 1.996 2.284-.09.09-.55.023-1.021-.147-.472-.172-.992-.311-1.157-.311-.547 0-.029.73.744 1.051.882.365.92.47.333.902-.564.412-.293.81.685 1.006.647.13.787.285.791.881.002.505.07.617.227.37.144-.227.283-.257.391-.083a.317.317 0 0 1-.097.434c-.48.298-.276.655.37.655.35 0 .702.106.781.234.079.13.72.373 1.42.542 1.491.359 2.748 1.442 2.004 1.729-.246.094-.703.054-1.016-.088-.36-.165-.808-.171-1.22-.018-.358.134-.918.192-1.244.13-.363-.068-.689.05-.841.31-.172.29-.311.33-.449.13-.11-.16-.444-.367-.741-.46-.48-.15-.53-.079-.427.618.126.857-.323 1.096-.534.285-.077-.296-.743-.781-1.63-1.187-1.407-.645-2.206-.713-2.206-.19 0 .252 1.145.835 1.64.835.172 0 .547.357.833.794.765 1.165 4.512 3.972 5.098 3.819.716-.188 2.647.844 2.465 1.318-.097.254-.025.338.213.247.205-.079.6.189.922.623.556.754 1.328 1.029 1.328.473 0-.159.177-.221.393-.138.85.326 1.63-.297 2.14-1.71.97-2.68.695-7.716-.457-8.43-.14-.087-.254-.452-.254-.811 0-.465-.13-.64-.456-.606-.899.092-1.07-.027-1.375-.95-.212-.648-.532-1.015-1.035-1.19-.4-.14-.786-.482-.86-.759-.072-.278-.33-.506-.571-.506-.452 0-1.878-.9-2.342-1.478-.44-.547-1.59-.869-1.92-.536-.218.218-.294.145-.294-.28 0-.316-.139-.574-.31-.574-.168 0-.783-.22-1.366-.488-1.54-.712-5.501-2.12-5.959-2.12-.097 0-.177.11-.177.247 0 .25.712.696 2.341 1.468zM24.86 39.14c.273.106.867-.317 1.804-1.285.767-.793 1.495-1.442 1.618-1.442.122 0 .376-.185.563-.41.186-.226.787-.64 1.334-.919 1.986-1.014.707-1.42-1.512-.48-2.36 1-2.466 1.074-2.13 1.48.385.464.006.733-1.336.947-.556.09-1.409.545-2.047 1.091v.001c-.602.516-1.095 1.05-1.095 1.187 0 .479.742.527 1.562.102.456-.236 1.014-.358 1.238-.272M23.368 27.68c-.14-.088-.784.37-1.428 1.015-.646.646-1.412 1.302-1.706 1.46-.293.156-.936.837-1.43 1.51-1.1 1.502-1.212 2.137-.269 1.517.353-.231.872-.422 1.154-.422.284 0 .586-.232.677-.52.104-.328.395-.521.78-.521.42 0 .643-.171.7-.533.046-.292.141-.507.213-.477.071.029.394-.088.716-.26.826-.442.78.128-.066.794-.707.558-.846.997-.314.997.463 0 3.878-3.158 4.331-4.005.223-.418.59-.69.93-.69.605 0 2.605-1.841 2.605-2.399 0-.187.255-.376.567-.42.678-.097 1.238-.701 1.003-1.081-.093-.15-.518-.272-.946-.272-.588 0-.886.187-1.218.768-.243.422-.618.83-.834.908-.979.347-2.884 1.658-3.497 2.403-.984 1.199-.873 1.896.153.966.261-.237.476-.32.476-.183 0 .394-.584.875-1.063.875-.24 0-.62.265-.845.587-.343.492-.41.514-.422.13-.008-.25-.19-.456-.405-.456-.502 0-.502-.633.003-1.138.237-.238.29-.456.135-.552"/></g></svg>